<svg width="650" height="230" viewBox="0 0 650 230" fill="none" xmlns="http://www.w3.org/2000/svg">
<mask id="mask0_215_51" style="mask-type:alpha" maskUnits="userSpaceOnUse" x="-24" y="0" width="674" height="230">
<rect x="-24" width="674" height="230" fill="url(#paint0_radial_215_51)"/>
</mask>
<g mask="url(#mask0_215_51)">
<rect x="0.5" y="0.5" width="19" height="39" stroke="#4AD6FB"/>
<rect x="19.5" y="0.5" width="19" height="39" stroke="#4AD6FB"/>
<rect x="38.5" y="0.5" width="19" height="39" stroke="#4AD6FB"/>
<rect x="57.5" y="0.5" width="19" height="39" stroke="#4AD6FB"/>
<rect x="76.5" y="0.5" width="19" height="39" stroke="#4AD6FB"/>
<rect x="95.5" y="0.5" width="19" height="39" stroke="#4AD6FB"/>
<rect x="114.5" y="0.5" width="19" height="39" stroke="#4AD6FB"/>
<rect x="133.5" y="0.5" width="19" height="39" stroke="#4AD6FB"/>
<rect x="152.5" y="0.5" width="19" height="39" stroke="#4AD6FB"/>
<rect x="171.5" y="0.5" width="19" height="39" stroke="#4AD6FB"/>
<rect x="190.5" y="0.5" width="19" height="39" stroke="#4AD6FB"/>
<rect x="209.5" y="0.5" width="19" height="39" stroke="#4AD6FB"/>
<rect x="228.5" y="0.5" width="19" height="39" stroke="#4AD6FB"/>
<rect x="247.5" y="0.5" width="19" height="39" stroke="#4AD6FB"/>
<rect x="266.5" y="0.5" width="19" height="39" stroke="#4AD6FB"/>
<rect x="285.5" y="0.5" width="19" height="39" stroke="#4AD6FB"/>
<rect x="304.5" y="0.5" width="19" height="39" stroke="#4AD6FB"/>
<rect x="323.5" y="0.5" width="19" height="39" stroke="#4AD6FB"/>
<rect x="342.5" y="0.5" width="19" height="39" stroke="#4AD6FB"/>
<rect x="361.5" y="0.5" width="19" height="39" stroke="#4AD6FB"/>
<rect x="380.5" y="0.5" width="19" height="39" stroke="#4AD6FB"/>
<rect x="399.5" y="0.5" width="19" height="39" stroke="#4AD6FB"/>
<rect x="418.5" y="0.5" width="19" height="39" stroke="#4AD6FB"/>
<rect x="437.5" y="0.5" width="19" height="39" stroke="#4AD6FB"/>
<rect x="456.5" y="0.5" width="19" height="39" stroke="#4AD6FB"/>
<rect x="475.5" y="0.5" width="19" height="39" stroke="#4AD6FB"/>
<rect x="494.5" y="0.5" width="19" height="39" stroke="#4AD6FB"/>
<rect x="513.5" y="0.5" width="19" height="39" stroke="#4AD6FB"/>
<rect x="532.5" y="0.5" width="19" height="39" stroke="#4AD6FB"/>
<rect x="551.5" y="0.5" width="19" height="39" stroke="#4AD6FB"/>
<rect x="570.5" y="0.5" width="19" height="39" stroke="#4AD6FB"/>
<rect x="589.5" y="0.5" width="19" height="39" stroke="#4AD6FB"/>
<rect x="608.5" y="0.5" width="19" height="39" stroke="#4AD6FB"/>
<rect x="0.5" y="39.5" width="19" height="39" stroke="#4AD6FB"/>
<rect x="19.5" y="39.5" width="19" height="39" stroke="#4AD6FB"/>
<rect x="38.5" y="39.5" width="19" height="39" stroke="#4AD6FB"/>
<rect x="57.5" y="39.5" width="19" height="39" stroke="#4AD6FB"/>
<rect x="76.5" y="39.5" width="19" height="39" fill="#4AD6FB" stroke="#4AD6FB"/>
<rect x="95.5" y="39.5" width="19" height="39" stroke="#4AD6FB"/>
<rect x="114.5" y="39.5" width="19" height="39" stroke="#4AD6FB"/>
<rect x="133.5" y="39.5" width="19" height="39" stroke="#4AD6FB"/>
<rect x="152.5" y="39.5" width="19" height="39" stroke="#4AD6FB"/>
<rect x="171.5" y="39.5" width="19" height="39" stroke="#4AD6FB"/>
<rect x="190.5" y="39.5" width="19" height="39" stroke="#4AD6FB"/>
<rect x="209.5" y="39.5" width="19" height="39" fill="#4AD6FB" stroke="#4AD6FB"/>
<rect x="228.5" y="39.5" width="19" height="39" stroke="#4AD6FB"/>
<rect x="247.5" y="39.5" width="19" height="39" stroke="#4AD6FB"/>
<rect x="266.5" y="39.5" width="19" height="39" stroke="#4AD6FB"/>
<rect x="285.5" y="39.5" width="19" height="39" stroke="#4AD6FB"/>
<rect x="304.5" y="39.5" width="19" height="39" stroke="#4AD6FB"/>
<rect x="323.5" y="39.5" width="19" height="39" stroke="#4AD6FB"/>
<rect x="342.5" y="39.5" width="19" height="39" stroke="#4AD6FB"/>
<rect x="361.5" y="39.5" width="19" height="39" stroke="#4AD6FB"/>
<rect x="380.5" y="39.5" width="19" height="39" stroke="#4AD6FB"/>
<rect x="399.5" y="39.5" width="19" height="39" fill="#4AD6FB" stroke="#4AD6FB"/>
<rect x="418.5" y="39.5" width="19" height="39" stroke="#4AD6FB"/>
<rect x="437.5" y="39.5" width="19" height="39" stroke="#4AD6FB"/>
<rect x="456.5" y="39.5" width="19" height="39" stroke="#4AD6FB"/>
<rect x="475.5" y="39.5" width="19" height="39" stroke="#4AD6FB"/>
<rect x="494.5" y="39.5" width="19" height="39" stroke="#4AD6FB"/>
<rect x="513.5" y="39.5" width="19" height="39" stroke="#4AD6FB"/>
<rect x="532.5" y="39.5" width="19" height="39" stroke="#4AD6FB"/>
<rect x="551.5" y="39.5" width="19" height="39" stroke="#4AD6FB"/>
<rect x="570.5" y="39.5" width="19" height="39" stroke="#4AD6FB"/>
<rect x="589.5" y="39.5" width="19" height="39" stroke="#4AD6FB"/>
<rect x="608.5" y="39.5" width="19" height="39" stroke="#4AD6FB"/>
<rect x="0.5" y="78.5" width="19" height="39" stroke="#4AD6FB"/>
<rect x="19.5" y="78.5" width="19" height="39" stroke="#4AD6FB"/>
<rect x="38.5" y="78.5" width="19" height="39" stroke="#4AD6FB"/>
<rect x="57.5" y="78.5" width="19" height="39" stroke="#4AD6FB"/>
<rect x="76.5" y="78.5" width="19" height="39" stroke="#4AD6FB"/>
<rect x="95.5" y="78.5" width="19" height="39" stroke="#4AD6FB"/>
<rect x="114.5" y="78.5" width="19" height="39" stroke="#4AD6FB"/>
<rect x="133.5" y="78.5" width="19" height="39" stroke="#4AD6FB"/>
<rect x="152.5" y="78.5" width="19" height="39" stroke="#4AD6FB"/>
<rect x="171.5" y="78.5" width="19" height="39" stroke="#4AD6FB"/>
<rect x="190.5" y="78.5" width="19" height="39" stroke="#4AD6FB"/>
<rect x="209.5" y="78.5" width="19" height="39" stroke="#4AD6FB"/>
<rect x="228.5" y="78.5" width="19" height="39" stroke="#4AD6FB"/>
<rect x="247.5" y="78.5" width="19" height="39" stroke="#4AD6FB"/>
<rect x="266.5" y="78.5" width="19" height="39" stroke="#4AD6FB"/>
<rect x="285.5" y="78.5" width="19" height="39" stroke="#4AD6FB"/>
<rect x="304.5" y="78.5" width="19" height="39" stroke="#4AD6FB"/>
<rect x="323.5" y="78.5" width="19" height="39" stroke="#4AD6FB"/>
<rect x="342.5" y="78.5" width="19" height="39" stroke="#4AD6FB"/>
<rect x="361.5" y="78.5" width="19" height="39" stroke="#4AD6FB"/>
<rect x="380.5" y="78.5" width="19" height="39" stroke="#4AD6FB"/>
<rect x="399.5" y="78.5" width="19" height="39" stroke="#4AD6FB"/>
<rect x="418.5" y="78.5" width="19" height="39" stroke="#4AD6FB"/>
<rect x="437.5" y="78.5" width="19" height="39" stroke="#4AD6FB"/>
<rect x="456.5" y="78.5" width="19" height="39" stroke="#4AD6FB"/>
<rect x="475.5" y="78.5" width="19" height="39" stroke="#4AD6FB"/>
<rect x="494.5" y="78.5" width="19" height="39" fill="#4AD6FB" stroke="#4AD6FB"/>
<rect x="513.5" y="78.5" width="19" height="39" stroke="#4AD6FB"/>
<rect x="532.5" y="78.5" width="19" height="39" stroke="#4AD6FB"/>
<rect x="551.5" y="78.5" width="19" height="39" stroke="#4AD6FB"/>
<rect x="570.5" y="78.5" width="19" height="39" stroke="#4AD6FB"/>
<rect x="589.5" y="78.5" width="19" height="39" stroke="#4AD6FB"/>
<rect x="608.5" y="78.5" width="19" height="39" stroke="#4AD6FB"/>
<rect x="0.5" y="117.5" width="19" height="39" stroke="#4AD6FB"/>
<rect x="19.5" y="117.5" width="19" height="39" stroke="#4AD6FB"/>
<rect x="38.5" y="117.5" width="19" height="39" stroke="#4AD6FB"/>
<rect x="57.5" y="117.5" width="19" height="39" stroke="#4AD6FB"/>
<rect x="76.5" y="117.5" width="19" height="39" stroke="#4AD6FB"/>
<rect x="95.5" y="117.5" width="19" height="39" stroke="#4AD6FB"/>
<rect x="114.5" y="117.5" width="19" height="39" fill="#4AD6FB" stroke="#4AD6FB"/>
<rect x="133.5" y="117.5" width="19" height="39" stroke="#4AD6FB"/>
<rect x="152.5" y="117.5" width="19" height="39" stroke="#4AD6FB"/>
<rect x="171.5" y="117.5" width="19" height="39" stroke="#4AD6FB"/>
<rect x="190.5" y="117.5" width="19" height="39" stroke="#4AD6FB"/>
<rect x="209.5" y="117.5" width="19" height="39" stroke="#4AD6FB"/>
<rect x="228.5" y="117.5" width="19" height="39" stroke="#4AD6FB"/>
<rect x="247.5" y="117.5" width="19" height="39" stroke="#4AD6FB"/>
<rect x="266.5" y="117.5" width="19" height="39" stroke="#4AD6FB"/>
<rect x="285.5" y="117.5" width="19" height="39" stroke="#4AD6FB"/>
<rect x="304.5" y="117.5" width="19" height="39" stroke="#4AD6FB"/>
<rect x="323.5" y="117.5" width="19" height="39" stroke="#4AD6FB"/>
<rect x="342.5" y="117.5" width="19" height="39" stroke="#4AD6FB"/>
<rect x="361.5" y="117.5" width="19" height="39" stroke="#4AD6FB"/>
<rect x="380.5" y="117.5" width="19" height="39" stroke="#4AD6FB"/>
<rect x="399.5" y="117.5" width="19" height="39" stroke="#4AD6FB"/>
<rect x="418.5" y="117.5" width="19" height="39" stroke="#4AD6FB"/>
<rect x="437.5" y="117.5" width="19" height="39" stroke="#4AD6FB"/>
<rect x="456.5" y="117.5" width="19" height="39" stroke="#4AD6FB"/>
<rect x="475.5" y="117.5" width="19" height="39" fill="#4AD6FB" stroke="#4AD6FB"/>
<rect x="494.5" y="117.5" width="19" height="39" stroke="#4AD6FB"/>
<rect x="513.5" y="117.5" width="19" height="39" stroke="#4AD6FB"/>
<rect x="532.5" y="117.5" width="19" height="39" stroke="#4AD6FB"/>
<rect x="551.5" y="117.5" width="19" height="39" stroke="#4AD6FB"/>
<rect x="570.5" y="117.5" width="19" height="39" stroke="#4AD6FB"/>
<rect x="589.5" y="117.5" width="19" height="39" stroke="#4AD6FB"/>
<rect x="608.5" y="117.5" width="19" height="39" stroke="#4AD6FB"/>
<rect x="0.5" y="156.5" width="19" height="39" stroke="#4AD6FB"/>
<rect x="19.5" y="156.5" width="19" height="39" stroke="#4AD6FB"/>
<rect x="38.5" y="156.5" width="19" height="39" stroke="#4AD6FB"/>
<rect x="57.5" y="156.5" width="19" height="39" stroke="#4AD6FB"/>
<rect x="76.5" y="156.5" width="19" height="39" stroke="#4AD6FB"/>
<rect x="95.5" y="156.5" width="19" height="39" stroke="#4AD6FB"/>
<rect x="114.5" y="156.5" width="19" height="39" stroke="#4AD6FB"/>
<rect x="133.5" y="156.5" width="19" height="39" stroke="#4AD6FB"/>
<rect x="152.5" y="156.5" width="19" height="39" stroke="#4AD6FB"/>
<rect x="171.5" y="156.5" width="19" height="39" stroke="#4AD6FB"/>
<rect x="190.5" y="156.5" width="19" height="39" stroke="#4AD6FB"/>
<rect x="209.5" y="156.5" width="19" height="39" stroke="#4AD6FB"/>
<rect x="228.5" y="156.5" width="19" height="39" stroke="#4AD6FB"/>
<rect x="247.5" y="156.5" width="19" height="39" stroke="#4AD6FB"/>
<rect x="266.5" y="156.5" width="19" height="39" fill="#4AD6FB" stroke="#4AD6FB"/>
<rect x="285.5" y="156.5" width="19" height="39" stroke="#4AD6FB"/>
<rect x="304.5" y="156.5" width="19" height="39" stroke="#4AD6FB"/>
<rect x="323.5" y="156.5" width="19" height="39" stroke="#4AD6FB"/>
<rect x="342.5" y="156.5" width="19" height="39" stroke="#4AD6FB"/>
<rect x="361.5" y="156.5" width="19" height="39" stroke="#4AD6FB"/>
<rect x="380.5" y="156.5" width="19" height="39" stroke="#4AD6FB"/>
<rect x="399.5" y="156.5" width="19" height="39" stroke="#4AD6FB"/>
<rect x="418.5" y="156.5" width="19" height="39" stroke="#4AD6FB"/>
<rect x="437.5" y="156.5" width="19" height="39" stroke="#4AD6FB"/>
<rect x="456.5" y="156.5" width="19" height="39" stroke="#4AD6FB"/>
<rect x="475.5" y="156.5" width="19" height="39" stroke="#4AD6FB"/>
<rect x="494.5" y="156.5" width="19" height="39" stroke="#4AD6FB"/>
<rect x="513.5" y="156.5" width="19" height="39" stroke="#4AD6FB"/>
<rect x="532.5" y="156.5" width="19" height="39" stroke="#4AD6FB"/>
<rect x="551.5" y="156.5" width="19" height="39" stroke="#4AD6FB"/>
<rect x="570.5" y="156.5" width="19" height="39" stroke="#4AD6FB"/>
<rect x="589.5" y="156.5" width="19" height="39" stroke="#4AD6FB"/>
<rect x="608.5" y="156.5" width="19" height="39" stroke="#4AD6FB"/>
<rect x="0.5" y="195.5" width="19" height="39" stroke="#4AD6FB"/>
<rect x="19.5" y="195.5" width="19" height="39" stroke="#4AD6FB"/>
<rect x="38.5" y="195.5" width="19" height="39" stroke="#4AD6FB"/>
<rect x="57.5" y="195.5" width="19" height="39" stroke="#4AD6FB"/>
<rect x="76.5" y="195.5" width="19" height="39" stroke="#4AD6FB"/>
<rect x="95.5" y="195.5" width="19" height="39" stroke="#4AD6FB"/>
<rect x="114.5" y="195.5" width="19" height="39" stroke="#4AD6FB"/>
<rect x="133.5" y="195.5" width="19" height="39" stroke="#4AD6FB"/>
<rect x="152.5" y="195.5" width="19" height="39" stroke="#4AD6FB"/>
<rect x="171.5" y="195.5" width="19" height="39" stroke="#4AD6FB"/>
<rect x="190.5" y="195.5" width="19" height="39" stroke="#4AD6FB"/>
<rect x="209.5" y="195.5" width="19" height="39" stroke="#4AD6FB"/>
<rect x="228.5" y="195.5" width="19" height="39" stroke="#4AD6FB"/>
<rect x="247.5" y="195.5" width="19" height="39" stroke="#4AD6FB"/>
<rect x="266.5" y="195.5" width="19" height="39" stroke="#4AD6FB"/>
<rect x="285.5" y="195.5" width="19" height="39" fill="#4AD6FB" stroke="#4AD6FB"/>
<rect x="304.5" y="195.5" width="19" height="39" stroke="#4AD6FB"/>
<rect x="323.5" y="195.5" width="19" height="39" stroke="#4AD6FB"/>
<rect x="342.5" y="195.5" width="19" height="39" stroke="#4AD6FB"/>
<rect x="361.5" y="195.5" width="19" height="39" stroke="#4AD6FB"/>
<rect x="380.5" y="195.5" width="19" height="39" stroke="#4AD6FB"/>
<rect x="399.5" y="195.5" width="19" height="39" stroke="#4AD6FB"/>
<rect x="418.5" y="195.5" width="19" height="39" stroke="#4AD6FB"/>
<rect x="437.5" y="195.5" width="19" height="39" stroke="#4AD6FB"/>
<rect x="456.5" y="195.5" width="19" height="39" stroke="#4AD6FB"/>
<rect x="475.5" y="195.5" width="19" height="39" stroke="#4AD6FB"/>
<rect x="494.5" y="195.5" width="19" height="39" stroke="#4AD6FB"/>
<rect x="513.5" y="195.5" width="19" height="39" stroke="#4AD6FB"/>
<rect x="532.5" y="195.5" width="19" height="39" stroke="#4AD6FB"/>
<rect x="551.5" y="195.5" width="19" height="39" stroke="#4AD6FB"/>
<rect x="570.5" y="195.5" width="19" height="39" stroke="#4AD6FB"/>
<rect x="589.5" y="195.5" width="19" height="39" stroke="#4AD6FB"/>
<rect x="608.5" y="195.5" width="19" height="39" stroke="#4AD6FB"/>
</g>
<defs>
<radialGradient id="paint0_radial_215_51" cx="0" cy="0" r="1" gradientUnits="userSpaceOnUse" gradientTransform="translate(276.5 96.3284) rotate(20.7867) scale(316.074 131.923)">
<stop stop-color="#D9D9D9" stop-opacity="0.63"/>
<stop offset="1" stop-color="#D9D9D9" stop-opacity="0"/>
</radialGradient>
</defs>
</svg>
