<svg width="376" height="197" viewBox="0 0 376 197" fill="none" xmlns="http://www.w3.org/2000/svg">
<path d="M140 25.5H299C302.866 25.5 306 28.634 306 32.5V74" stroke="#4AD6FB" stroke-width="3"/>
<path d="M236 100H140C134.477 100 130 104.477 130 110V148" stroke="#4AD6FB" stroke-width="3"/>
<rect width="140" height="50" rx="25" fill="#4AD6FB"/>
<rect x="236" y="74" width="140" height="50" rx="25" fill="#4AD6FB"/>
<rect x="61" y="147" width="140" height="50" rx="25" fill="#4AD6FB"/>
<path d="M30.94 31H28.08V17.6H33.64C36.72 17.6 39.08 19.02 39.08 22.4C39.08 25.7 36.76 27.12 33.64 27.12H30.94V31ZM33.54 20.14H30.94V24.58H33.54C35.02 24.58 36.08 23.98 36.08 22.4C36.08 20.72 35.02 20.14 33.54 20.14ZM43.1452 31H40.2852V21.2H43.1452V24.28C43.4652 22.64 44.4252 21 46.3052 21C47.7452 21 48.5452 21.92 48.5452 23.46C48.5452 24.52 48.2252 25.36 47.9852 25.74H45.2252C45.5852 25.38 45.9252 24.68 45.9252 24.12C45.9252 23.56 45.6652 23.14 45.0452 23.14C44.0652 23.14 43.1452 24.2 43.1452 25.82V31ZM54.162 31.2C51.042 31.2 49.142 29.12 49.142 26.1C49.142 23.08 51.042 21 53.922 21C57.042 21 58.602 23.08 58.602 25.64C58.602 26.06 58.562 26.62 58.502 26.84H51.822C52.002 28.22 52.922 28.88 54.202 28.88C55.582 28.88 56.322 28.28 56.682 27.44L58.422 29.18C57.682 30.24 56.362 31.2 54.162 31.2ZM53.942 23.2C52.722 23.2 51.962 23.88 51.822 25.2H56.022C55.922 23.9 55.222 23.2 53.942 23.2ZM65.2852 26.92H59.8852V24.58H65.2852V26.92ZM72.7081 31.2C70.1281 31.2 67.7481 30.36 66.5081 28.4L68.3881 26.2C69.2881 27.88 71.2281 28.62 72.8281 28.62C73.9881 28.62 74.8281 28.26 74.8281 27.34C74.8281 26.3 73.9481 25.96 72.1681 25.6L70.8681 25.32C68.7881 24.9 66.8281 23.98 66.8281 21.44C66.8281 18.82 69.0881 17.44 71.8081 17.44C74.3281 17.44 76.3481 18.4 77.4681 20L75.5281 22.18C74.6481 20.78 73.0881 20.02 71.5481 20.02C70.5281 20.02 69.7881 20.46 69.7881 21.24C69.7881 22.22 70.6481 22.58 72.0481 22.9L73.5681 23.26C76.0681 23.84 77.7681 24.86 77.7681 27.26C77.7681 29.82 75.6081 31.2 72.7081 31.2ZM82.798 31.2C80.638 31.2 79.618 29.92 79.618 28.1V23.38H78.158V21.2H79.618V20.04L82.478 18.54V21.2H85.198V23.38H82.478V27.58C82.478 28.38 82.878 28.66 83.438 28.66C84.058 28.66 84.598 28.16 84.898 27.62L85.718 29.96C85.298 30.5 84.298 31.2 82.798 31.2ZM88.87 31.22C87.35 31.22 86.29 30.4 86.29 28.82C86.29 27.34 87.23 26.48 89.09 25.84L92.09 24.72C91.99 23.9 91.61 23.44 90.53 23.44C89.29 23.44 88.15 24.14 87.47 25.12L86.03 23.04C87.01 21.98 88.63 21 90.73 21C93.21 21 94.65 22.32 94.65 24.78V28.14C94.65 28.58 94.81 28.72 95.17 28.72H95.75V31H94.07C93.01 31 92.05 30.52 92.05 29.12V28.46C91.73 29.74 90.87 31.22 88.87 31.22ZM88.93 28.4C88.93 28.86 89.25 29.12 89.93 29.12C91.29 29.12 92.05 28.44 92.05 27.24V26.56L89.97 27.42C89.19 27.74 88.93 28.02 88.93 28.4ZM99.9616 31H97.1016V21.2H99.9616V24.28C100.282 22.64 101.242 21 103.122 21C104.562 21 105.362 21.92 105.362 23.46C105.362 24.52 105.042 25.36 104.802 25.74H102.042C102.402 25.38 102.742 24.68 102.742 24.12C102.742 23.56 102.482 23.14 101.862 23.14C100.882 23.14 99.9616 24.2 99.9616 25.82V31ZM110.513 31.2C108.353 31.2 107.333 29.92 107.333 28.1V23.38H105.873V21.2H107.333V20.04L110.193 18.54V21.2H112.913V23.38H110.193V27.58C110.193 28.38 110.593 28.66 111.153 28.66C111.773 28.66 112.313 28.16 112.613 27.62L113.433 29.96C113.013 30.5 112.013 31.2 110.513 31.2Z" fill="#2C2D34"/>
<path d="M283.94 107H281.08V93.6H286.64C289.72 93.6 292.08 95.02 292.08 98.4C292.08 101.7 289.76 103.12 286.64 103.12H283.94V107ZM286.54 96.14H283.94V100.58H286.54C288.02 100.58 289.08 99.98 289.08 98.4C289.08 96.72 288.02 96.14 286.54 96.14ZM296.245 107.2C294.385 107.2 293.225 106.06 293.225 104.04V97.2H296.085V103.04C296.085 104.24 296.405 104.98 297.725 104.98C299.085 104.98 299.505 104.22 299.505 102.62V97.2H302.365V107H299.505V104.26C299.165 105.82 298.225 107.2 296.245 107.2ZM307.239 107H304.379V93.6H307.239V107ZM313.622 107.2C311.442 107.2 309.502 106.4 308.662 105.22L309.982 103.28C310.802 104.16 312.222 105.02 313.702 105.02C314.482 105.02 314.942 104.78 314.942 104.26C314.942 103.74 314.382 103.54 313.342 103.28L312.022 102.96C310.262 102.5 308.982 101.8 308.982 100.08C308.982 98.16 310.542 97.02 312.942 97.02C315.062 97.02 316.602 97.94 317.282 98.8L316.002 100.72C315.042 99.72 313.842 99.18 312.702 99.18C312.002 99.18 311.582 99.44 311.582 99.92C311.582 100.44 312.002 100.64 313.302 101L314.402 101.3C316.562 101.88 317.502 102.72 317.502 104.22C317.502 106.12 315.902 107.2 313.622 107.2ZM323.373 107.2C320.253 107.2 318.353 105.12 318.353 102.1C318.353 99.08 320.253 97 323.133 97C326.253 97 327.813 99.08 327.813 101.64C327.813 102.06 327.773 102.62 327.713 102.84H321.033C321.213 104.22 322.133 104.88 323.413 104.88C324.793 104.88 325.533 104.28 325.893 103.44L327.633 105.18C326.893 106.24 325.573 107.2 323.373 107.2ZM323.153 99.2C321.933 99.2 321.173 99.88 321.033 101.2H325.233C325.133 99.9 324.433 99.2 323.153 99.2Z" fill="#2C2D34"/>
<path d="M110.94 178H108.08V164.6H113.64C116.72 164.6 119.08 166.02 119.08 169.4C119.08 172.7 116.76 174.12 113.64 174.12H110.94V178ZM113.54 167.14H110.94V171.58H113.54C115.02 171.58 116.08 170.98 116.08 169.4C116.08 167.72 115.02 167.14 113.54 167.14ZM123.38 178H120.52V164.6H123.38V178ZM127.522 178.22C126.002 178.22 124.942 177.4 124.942 175.82C124.942 174.34 125.882 173.48 127.742 172.84L130.742 171.72C130.642 170.9 130.262 170.44 129.182 170.44C127.942 170.44 126.802 171.14 126.122 172.12L124.682 170.04C125.662 168.98 127.282 168 129.382 168C131.862 168 133.302 169.32 133.302 171.78V175.14C133.302 175.58 133.462 175.72 133.822 175.72H134.402V178H132.722C131.662 178 130.702 177.52 130.702 176.12V175.46C130.382 176.74 129.522 178.22 127.522 178.22ZM127.582 175.4C127.582 175.86 127.902 176.12 128.582 176.12C129.942 176.12 130.702 175.44 130.702 174.24V173.56L128.622 174.42C127.842 174.74 127.582 175.02 127.582 175.4ZM138.614 178H135.754V168.2H138.614V171.04C138.934 169.44 139.874 168 141.894 168C143.754 168 144.894 169.14 144.894 171.16V178H142.034V172.16C142.034 170.96 141.714 170.22 140.414 170.22C139.054 170.22 138.614 170.98 138.614 172.58V178Z" fill="#2C2D34"/>
</svg>
