<svg width="376" height="197" viewBox="0 0 376 197" fill="none" xmlns="http://www.w3.org/2000/svg">
<path d="M140 25.5H299C302.866 25.5 306 28.634 306 32.5V74" stroke="#4AD6FB" stroke-width="3"/>
<path d="M236 100H140C134.477 100 130 104.477 130 110V148" stroke="#4AD6FB" stroke-width="3"/>
<rect width="140" height="50" rx="25" fill="#4AD6FB"/>
<rect x="236" y="74" width="140" height="50" rx="25" fill="#4AD6FB"/>
<rect x="61" y="147" width="140" height="50" rx="25" fill="#4AD6FB"/>
<path d="M51.94 31H49.08V17.6H54.64C57.72 17.6 60.08 19.02 60.08 22.4C60.08 25.7 57.76 27.12 54.64 27.12H51.94V31ZM54.54 20.14H51.94V24.58H54.54C56.02 24.58 57.08 23.98 57.08 22.4C57.08 20.72 56.02 20.14 54.54 20.14ZM64.2452 31.2C62.3852 31.2 61.2252 30.06 61.2252 28.04V21.2H64.0852V27.04C64.0852 28.24 64.4052 28.98 65.7252 28.98C67.0852 28.98 67.5052 28.22 67.5052 26.62V21.2H70.3652V31H67.5052V28.26C67.1652 29.82 66.2252 31.2 64.2452 31.2ZM75.2389 31H72.3789V17.6H75.2389V31ZM81.6217 31.2C79.4417 31.2 77.5017 30.4 76.6617 29.22L77.9817 27.28C78.8017 28.16 80.2217 29.02 81.7017 29.02C82.4817 29.02 82.9417 28.78 82.9417 28.26C82.9417 27.74 82.3817 27.54 81.3417 27.28L80.0217 26.96C78.2617 26.5 76.9817 25.8 76.9817 24.08C76.9817 22.16 78.5417 21.02 80.9417 21.02C83.0617 21.02 84.6017 21.94 85.2817 22.8L84.0017 24.72C83.0417 23.72 81.8417 23.18 80.7017 23.18C80.0017 23.18 79.5817 23.44 79.5817 23.92C79.5817 24.44 80.0017 24.64 81.3017 25L82.4017 25.3C84.5617 25.88 85.5017 26.72 85.5017 28.22C85.5017 30.12 83.9017 31.2 81.6217 31.2ZM91.373 31.2C88.253 31.2 86.353 29.12 86.353 26.1C86.353 23.08 88.253 21 91.133 21C94.253 21 95.813 23.08 95.813 25.64C95.813 26.06 95.773 26.62 95.713 26.84H89.033C89.213 28.22 90.133 28.88 91.413 28.88C92.793 28.88 93.533 28.28 93.893 27.44L95.633 29.18C94.893 30.24 93.573 31.2 91.373 31.2ZM91.153 23.2C89.933 23.2 89.173 23.88 89.033 25.2H93.233C93.133 23.9 92.433 23.2 91.153 23.2Z" fill="#2C2D34"/>
<path d="M267.94 107H265.08V93.6H270.64C273.72 93.6 276.08 95.02 276.08 98.4C276.08 101.7 273.76 103.12 270.64 103.12H267.94V107ZM270.54 96.14H267.94V100.58H270.54C272.02 100.58 273.08 99.98 273.08 98.4C273.08 96.72 272.02 96.14 270.54 96.14ZM280.145 107H277.285V97.2H280.145V100.28C280.465 98.64 281.425 97 283.305 97C284.745 97 285.545 97.92 285.545 99.46C285.545 100.52 285.225 101.36 284.985 101.74H282.225C282.585 101.38 282.925 100.68 282.925 100.12C282.925 99.56 282.665 99.14 282.045 99.14C281.065 99.14 280.145 100.2 280.145 101.82V107ZM291.162 107.2C288.042 107.2 286.142 105.12 286.142 102.1C286.142 99.08 288.042 97 290.922 97C294.042 97 295.602 99.08 295.602 101.64C295.602 102.06 295.562 102.62 295.502 102.84H288.822C289.002 104.22 289.922 104.88 291.202 104.88C292.582 104.88 293.322 104.28 293.682 103.44L295.422 105.18C294.682 106.24 293.362 107.2 291.162 107.2ZM290.942 99.2C289.722 99.2 288.962 99.88 288.822 101.2H293.022C292.922 99.9 292.222 99.2 290.942 99.2ZM302.285 102.92H296.885V100.58H302.285V102.92ZM309.708 107.2C307.128 107.2 304.748 106.36 303.508 104.4L305.388 102.2C306.288 103.88 308.228 104.62 309.828 104.62C310.988 104.62 311.828 104.26 311.828 103.34C311.828 102.3 310.948 101.96 309.168 101.6L307.868 101.32C305.788 100.9 303.828 99.98 303.828 97.44C303.828 94.82 306.088 93.44 308.808 93.44C311.328 93.44 313.348 94.4 314.468 96L312.528 98.18C311.648 96.78 310.088 96.02 308.548 96.02C307.528 96.02 306.788 96.46 306.788 97.24C306.788 98.22 307.648 98.58 309.048 98.9L310.568 99.26C313.068 99.84 314.768 100.86 314.768 103.26C314.768 105.82 312.608 107.2 309.708 107.2ZM319.798 107.2C317.638 107.2 316.618 105.92 316.618 104.1V99.38H315.158V97.2H316.618V96.04L319.478 94.54V97.2H322.198V99.38H319.478V103.58C319.478 104.38 319.878 104.66 320.438 104.66C321.058 104.66 321.598 104.16 321.898 103.62L322.718 105.96C322.298 106.5 321.298 107.2 319.798 107.2ZM325.87 107.22C324.35 107.22 323.29 106.4 323.29 104.82C323.29 103.34 324.23 102.48 326.09 101.84L329.09 100.72C328.99 99.9 328.61 99.44 327.53 99.44C326.29 99.44 325.15 100.14 324.47 101.12L323.03 99.04C324.01 97.98 325.63 97 327.73 97C330.21 97 331.65 98.32 331.65 100.78V104.14C331.65 104.58 331.81 104.72 332.17 104.72H332.75V107H331.07C330.01 107 329.05 106.52 329.05 105.12V104.46C328.73 105.74 327.87 107.22 325.87 107.22ZM325.93 104.4C325.93 104.86 326.25 105.12 326.93 105.12C328.29 105.12 329.05 104.44 329.05 103.24V102.56L326.97 103.42C326.19 103.74 325.93 104.02 325.93 104.4ZM336.962 107H334.102V97.2H336.962V100.28C337.282 98.64 338.242 97 340.122 97C341.562 97 342.362 97.92 342.362 99.46C342.362 100.52 342.042 101.36 341.802 101.74H339.042C339.402 101.38 339.742 100.68 339.742 100.12C339.742 99.56 339.482 99.14 338.862 99.14C337.882 99.14 336.962 100.2 336.962 101.82V107ZM347.513 107.2C345.353 107.2 344.333 105.92 344.333 104.1V99.38H342.873V97.2H344.333V96.04L347.193 94.54V97.2H349.913V99.38H347.193V103.58C347.193 104.38 347.593 104.66 348.153 104.66C348.773 104.66 349.313 104.16 349.613 103.62L350.433 105.96C350.013 106.5 349.013 107.2 347.513 107.2Z" fill="#2C2D34"/>
<path d="M110.94 178H108.08V164.6H113.64C116.72 164.6 119.08 166.02 119.08 169.4C119.08 172.7 116.76 174.12 113.64 174.12H110.94V178ZM113.54 167.14H110.94V171.58H113.54C115.02 171.58 116.08 170.98 116.08 169.4C116.08 167.72 115.02 167.14 113.54 167.14ZM123.38 178H120.52V164.6H123.38V178ZM127.522 178.22C126.002 178.22 124.942 177.4 124.942 175.82C124.942 174.34 125.882 173.48 127.742 172.84L130.742 171.72C130.642 170.9 130.262 170.44 129.182 170.44C127.942 170.44 126.802 171.14 126.122 172.12L124.682 170.04C125.662 168.98 127.282 168 129.382 168C131.862 168 133.302 169.32 133.302 171.78V175.14C133.302 175.58 133.462 175.72 133.822 175.72H134.402V178H132.722C131.662 178 130.702 177.52 130.702 176.12V175.46C130.382 176.74 129.522 178.22 127.522 178.22ZM127.582 175.4C127.582 175.86 127.902 176.12 128.582 176.12C129.942 176.12 130.702 175.44 130.702 174.24V173.56L128.622 174.42C127.842 174.74 127.582 175.02 127.582 175.4ZM138.614 178H135.754V168.2H138.614V171.04C138.934 169.44 139.874 168 141.894 168C143.754 168 144.894 169.14 144.894 171.16V178H142.034V172.16C142.034 170.96 141.714 170.22 140.414 170.22C139.054 170.22 138.614 170.98 138.614 172.58V178Z" fill="#2C2D34"/>
</svg>
