<svg width="376" height="197" viewBox="0 0 376 197" fill="none" xmlns="http://www.w3.org/2000/svg">
<path d="M140 25.5H299C302.866 25.5 306 28.634 306 32.5V74" stroke="#4AD6FB" stroke-width="3"/>
<path d="M236 100H140C134.477 100 130 104.477 130 110V148" stroke="#4AD6FB" stroke-width="3"/>
<rect width="140" height="50" rx="25" fill="#4AD6FB"/>
<rect x="236" y="74" width="140" height="50" rx="25" fill="#4AD6FB"/>
<rect x="61" y="147" width="140" height="50" rx="25" fill="#4AD6FB"/>
<path d="M51.94 31H49.08V17.6H54.64C57.72 17.6 60.08 19.02 60.08 22.4C60.08 25.7 57.76 27.12 54.64 27.12H51.94V31ZM54.54 20.14H51.94V24.58H54.54C56.02 24.58 57.08 23.98 57.08 22.4C57.08 20.72 56.02 20.14 54.54 20.14ZM64.2452 31.2C62.3852 31.2 61.2252 30.06 61.2252 28.04V21.2H64.0852V27.04C64.0852 28.24 64.4052 28.98 65.7252 28.98C67.0852 28.98 67.5052 28.22 67.5052 26.62V21.2H70.3652V31H67.5052V28.26C67.1652 29.82 66.2252 31.2 64.2452 31.2ZM75.2389 31H72.3789V17.6H75.2389V31ZM81.6217 31.2C79.4417 31.2 77.5017 30.4 76.6617 29.22L77.9817 27.28C78.8017 28.16 80.2217 29.02 81.7017 29.02C82.4817 29.02 82.9417 28.78 82.9417 28.26C82.9417 27.74 82.3817 27.54 81.3417 27.28L80.0217 26.96C78.2617 26.5 76.9817 25.8 76.9817 24.08C76.9817 22.16 78.5417 21.02 80.9417 21.02C83.0617 21.02 84.6017 21.94 85.2817 22.8L84.0017 24.72C83.0417 23.72 81.8417 23.18 80.7017 23.18C80.0017 23.18 79.5817 23.44 79.5817 23.92C79.5817 24.44 80.0017 24.64 81.3017 25L82.4017 25.3C84.5617 25.88 85.5017 26.72 85.5017 28.22C85.5017 30.12 83.9017 31.2 81.6217 31.2ZM91.373 31.2C88.253 31.2 86.353 29.12 86.353 26.1C86.353 23.08 88.253 21 91.133 21C94.253 21 95.813 23.08 95.813 25.64C95.813 26.06 95.773 26.62 95.713 26.84H89.033C89.213 28.22 90.133 28.88 91.413 28.88C92.793 28.88 93.533 28.28 93.893 27.44L95.633 29.18C94.893 30.24 93.573 31.2 91.373 31.2ZM91.153 23.2C89.933 23.2 89.173 23.88 89.033 25.2H93.233C93.133 23.9 92.433 23.2 91.153 23.2Z" fill="#2C2D34"/>
<path d="M267.94 107H265.08V93.6H270.64C273.72 93.6 276.08 95.02 276.08 98.4C276.08 101.7 273.76 103.12 270.64 103.12H267.94V107ZM270.54 96.14H267.94V100.58H270.54C272.02 100.58 273.08 99.98 273.08 98.4C273.08 96.72 272.02 96.14 270.54 96.14ZM280.145 107H277.285V97.2H280.145V100.28C280.465 98.64 281.425 97 283.305 97C284.745 97 285.545 97.92 285.545 99.46C285.545 100.52 285.225 101.36 284.985 101.74H282.225C282.585 101.38 282.925 100.68 282.925 100.12C282.925 99.56 282.665 99.14 282.045 99.14C281.065 99.14 280.145 100.2 280.145 101.82V107ZM291.162 107.2C288.042 107.2 286.142 105.12 286.142 102.1C286.142 99.08 288.042 97 290.922 97C294.042 97 295.602 99.08 295.602 101.64C295.602 102.06 295.562 102.62 295.502 102.84H288.822C289.002 104.22 289.922 104.88 291.202 104.88C292.582 104.88 293.322 104.28 293.682 103.44L295.422 105.18C294.682 106.24 293.362 107.2 291.162 107.2ZM290.942 99.2C289.722 99.2 288.962 99.88 288.822 101.2H293.022C292.922 99.9 292.222 99.2 290.942 99.2ZM302.285 102.92H296.885V100.58H302.285V102.92ZM309.708 107.2C307.128 107.2 304.748 106.36 303.508 104.4L305.388 102.2C306.288 103.88 308.228 104.62 309.828 104.62C310.988 104.62 311.828 104.26 311.828 103.34C311.828 102.3 310.948 101.96 309.168 101.6L307.868 101.32C305.788 100.9 303.828 99.98 303.828 97.44C303.828 94.82 306.088 93.44 308.808 93.44C311.328 93.44 313.348 94.4 314.468 96L312.528 98.18C311.648 96.78 310.088 96.02 308.548 96.02C307.528 96.02 306.788 96.46 306.788 97.24C306.788 98.22 307.648 98.58 309.048 98.9L310.568 99.26C313.068 99.84 314.768 100.86 314.768 103.26C314.768 105.82 312.608 107.2 309.708 107.2ZM319.798 107.2C317.638 107.2 316.618 105.92 316.618 104.1V99.38H315.158V97.2H316.618V96.04L319.478 94.54V97.2H322.198V99.38H319.478V103.58C319.478 104.38 319.878 104.66 320.438 104.66C321.058 104.66 321.598 104.16 321.898 103.62L322.718 105.96C322.298 106.5 321.298 107.2 319.798 107.2ZM325.87 107.22C324.35 107.22 323.29 106.4 323.29 104.82C323.29 103.34 324.23 102.48 326.09 101.84L329.09 100.72C328.99 99.9 328.61 99.44 327.53 99.44C326.29 99.44 325.15 100.14 324.47 101.12L323.03 99.04C324.01 97.98 325.63 97 327.73 97C330.21 97 331.65 98.32 331.65 100.78V104.14C331.65 104.58 331.81 104.72 332.17 104.72H332.75V107H331.07C330.01 107 329.05 106.52 329.05 105.12V104.46C328.73 105.74 327.87 107.22 325.87 107.22ZM325.93 104.4C325.93 104.86 326.25 105.12 326.93 105.12C328.29 105.12 329.05 104.44 329.05 103.24V102.56L326.97 103.42C326.19 103.74 325.93 104.02 325.93 104.4ZM336.962 107H334.102V97.2H336.962V100.28C337.282 98.64 338.242 97 340.122 97C341.562 97 342.362 97.92 342.362 99.46C342.362 100.52 342.042 101.36 341.802 101.74H339.042C339.402 101.38 339.742 100.68 339.742 100.12C339.742 99.56 339.482 99.14 338.862 99.14C337.882 99.14 336.962 100.2 336.962 101.82V107ZM347.513 107.2C345.353 107.2 344.333 105.92 344.333 104.1V99.38H342.873V97.2H344.333V96.04L347.193 94.54V97.2H349.913V99.38H347.193V103.58C347.193 104.38 347.593 104.66 348.153 104.66C348.773 104.66 349.313 104.16 349.613 103.62L350.433 105.96C350.013 106.5 349.013 107.2 347.513 107.2Z" fill="#2C2D34"/>
<path d="M92.14 178H89.28V167.14H85.28V164.6H96.14V167.14H92.14V178ZM98.1591 178.22C96.6391 178.22 95.5791 177.4 95.5791 175.82C95.5791 174.34 96.5191 173.48 98.3791 172.84L101.379 171.72C101.279 170.9 100.899 170.44 99.8191 170.44C98.5791 170.44 97.4391 171.14 96.7591 172.12L95.3191 170.04C96.2991 168.98 97.9191 168 100.019 168C102.499 168 103.939 169.32 103.939 171.78V175.14C103.939 175.58 104.099 175.72 104.459 175.72H105.039V178H103.359C102.299 178 101.339 177.52 101.339 176.12V175.46C101.019 176.74 100.159 178.22 98.1591 178.22ZM98.2191 175.4C98.2191 175.86 98.5391 176.12 99.2191 176.12C100.579 176.12 101.339 175.44 101.339 174.24V173.56L99.2591 174.42C98.4791 174.74 98.2191 175.02 98.2191 175.4ZM109.251 178H106.391V164.6H109.251V178ZM115.853 178.2C112.733 178.2 110.833 176.12 110.833 173.1C110.833 170.08 112.733 168 115.613 168C118.733 168 120.293 170.08 120.293 172.64C120.293 173.06 120.253 173.62 120.193 173.84H113.513C113.693 175.22 114.613 175.88 115.893 175.88C117.273 175.88 118.013 175.28 118.373 174.44L120.113 176.18C119.373 177.24 118.053 178.2 115.853 178.2ZM115.633 170.2C114.413 170.2 113.653 170.88 113.513 172.2H117.713C117.613 170.9 116.913 170.2 115.633 170.2ZM124.798 178H121.938V168.2H124.798V171.04C125.118 169.44 126.058 168 128.078 168C129.938 168 131.078 169.14 131.078 171.16V178H128.218V172.16C128.218 170.96 127.898 170.22 126.598 170.22C125.238 170.22 124.798 170.98 124.798 172.58V178ZM136.677 178.2C134.517 178.2 133.497 176.92 133.497 175.1V170.38H132.037V168.2H133.497V167.04L136.357 165.54V168.2H139.077V170.38H136.357V174.58C136.357 175.38 136.757 175.66 137.317 175.66C137.937 175.66 138.477 175.16 138.777 174.62L139.597 176.96C139.177 177.5 138.177 178.2 136.677 178.2ZM147.573 178H144.713V164.6H150.273C153.353 164.6 155.713 166.02 155.713 169.4C155.713 172.7 153.393 174.12 150.273 174.12H147.573V178ZM150.173 167.14H147.573V171.58H150.173C151.653 171.58 152.713 170.98 152.713 169.4C152.713 167.72 151.653 167.14 150.173 167.14ZM160.012 178H157.152V164.6H160.012V178ZM164.155 178.22C162.635 178.22 161.575 177.4 161.575 175.82C161.575 174.34 162.515 173.48 164.375 172.84L167.375 171.72C167.275 170.9 166.895 170.44 165.815 170.44C164.575 170.44 163.435 171.14 162.755 172.12L161.315 170.04C162.295 168.98 163.915 168 166.015 168C168.495 168 169.935 169.32 169.935 171.78V175.14C169.935 175.58 170.095 175.72 170.455 175.72H171.035V178H169.355C168.295 178 167.335 177.52 167.335 176.12V175.46C167.015 176.74 166.155 178.22 164.155 178.22ZM164.215 175.4C164.215 175.86 164.535 176.12 165.215 176.12C166.575 176.12 167.335 175.44 167.335 174.24V173.56L165.255 174.42C164.475 174.74 164.215 175.02 164.215 175.4ZM175.247 178H172.387V168.2H175.247V171.04C175.567 169.44 176.507 168 178.527 168C180.387 168 181.527 169.14 181.527 171.16V178H178.667V172.16C178.667 170.96 178.347 170.22 177.047 170.22C175.687 170.22 175.247 170.98 175.247 172.58V178Z" fill="#2C2D34"/>
</svg>
