<svg width="16" height="16" viewBox="0 0 16 16" fill="none" xmlns="http://www.w3.org/2000/svg">
<path d="M12.96 8.66662C12.8133 8.66662 12.66 8.61995 12.5133 8.58662C12.2163 8.52117 11.9245 8.43428 11.64 8.32662C11.3307 8.21411 10.9908 8.21995 10.6855 8.34302C10.3803 8.4661 10.1314 8.69771 9.98667 8.99329L9.84001 9.29329C9.19067 8.93207 8.594 8.48344 8.06667 7.95995C7.54319 7.43263 7.09455 6.83595 6.73334 6.18662L7.01334 5.99995C7.30892 5.85523 7.54053 5.60631 7.6636 5.30108C7.78668 4.99585 7.79252 4.65589 7.68001 4.34662C7.57415 4.06157 7.4873 3.76982 7.42001 3.47329C7.38667 3.32662 7.36001 3.17329 7.34001 3.01995C7.25905 2.55037 7.01309 2.12511 6.64642 1.82078C6.27975 1.51644 5.81647 1.35303 5.34001 1.35995H3.34001C3.05269 1.35726 2.76817 1.4165 2.50581 1.53364C2.24345 1.65078 2.00941 1.82308 1.81963 2.03881C1.62984 2.25453 1.48876 2.50862 1.406 2.78376C1.32323 3.05891 1.30073 3.34866 1.34001 3.63329C1.69516 6.42621 2.97069 9.02121 4.96511 11.0084C6.95952 12.9955 9.55915 14.2616 12.3533 14.6066H12.6067C13.0983 14.6073 13.5729 14.427 13.94 14.1C14.1509 13.9113 14.3194 13.6801 14.4343 13.4215C14.5492 13.1629 14.608 12.8829 14.6067 12.6V10.6C14.5985 10.1369 14.4299 9.69099 14.1296 9.3384C13.8293 8.98581 13.4159 8.74837 12.96 8.66662ZM13.2933 12.6666C13.2932 12.7613 13.2729 12.8548 13.2339 12.941C13.1948 13.0272 13.1378 13.1041 13.0667 13.1666C12.9924 13.2313 12.9053 13.2796 12.8111 13.3083C12.7169 13.337 12.6177 13.3455 12.52 13.3333C10.0233 13.0132 7.70416 11.8709 5.92848 10.0868C4.1528 8.30268 3.02161 5.97818 2.71334 3.47995C2.70273 3.3823 2.71203 3.28351 2.74067 3.18955C2.76932 3.09559 2.81672 3.00841 2.88001 2.93329C2.94248 2.86217 3.01938 2.80518 3.10559 2.7661C3.1918 2.72702 3.28535 2.70674 3.38001 2.70662H5.38001C5.53504 2.70317 5.68642 2.75387 5.8081 2.85C5.92978 2.94613 6.01415 3.08167 6.04667 3.23329C6.07334 3.41551 6.10667 3.59551 6.14667 3.77329C6.22369 4.12472 6.32618 4.47007 6.45334 4.80662L5.52001 5.23995C5.4402 5.27657 5.36842 5.32858 5.30878 5.39302C5.24913 5.45745 5.20281 5.53303 5.17245 5.61542C5.1421 5.6978 5.12832 5.78537 5.1319 5.8731C5.13549 5.96083 5.15637 6.04698 5.19334 6.12662C6.15281 8.18179 7.80484 9.83382 9.86001 10.7933C10.0223 10.86 10.2044 10.86 10.3667 10.7933C10.4498 10.7635 10.5262 10.7176 10.5915 10.6581C10.6567 10.5986 10.7094 10.5267 10.7467 10.4466L11.16 9.51329C11.5047 9.63654 11.8564 9.73895 12.2133 9.81995C12.3911 9.85995 12.5711 9.89329 12.7533 9.91995C12.905 9.95248 13.0405 10.0368 13.1366 10.1585C13.2328 10.2802 13.2835 10.4316 13.28 10.5866L13.2933 12.6666Z" fill="#696969"/>
</svg>
