<svg width="24" height="24" viewBox="0 0 24 24" fill="none" xmlns="http://www.w3.org/2000/svg">
<path d="M22.6 2.1C22.5 1.8 22.2 1.5 21.9 1.4C17.7 0.300004 13.4 1.6 10.5 5L9.39999 6.3L6.69999 5.7C5.39999 5.2 3.99999 5.8 3.39999 7L1.19999 10.9C0.999988 11.2 0.999988 11.5 1.19999 11.8C1.29999 12.1 1.59999 12.3 1.89999 12.4L4.99999 13.1C4.69999 13.9 4.59999 14.7 4.39999 15.5C4.39999 15.8 4.49999 16.1 4.69999 16.3L7.79999 19.4C7.99999 19.6 8.19999 19.7 8.49999 19.7H8.59999C9.49999 19.6 10.3 19.5 11.1 19.2L11.7 22.2C11.8 22.5 12 22.8 12.3 22.9C12.4 23 12.6 23 12.7 23C12.9 23 13 23 13.2 22.9L17.1 20.7C18.2 20.1 18.8 18.7 18.5 17.4L17.8 14.6L19 13.5C22.3 10.7 23.7 6.2 22.6 2.1ZM7.29999 8.8C6.69999 9.6 6.09999 10.4 5.69999 11.2L3.59999 10.7L5.09999 8C5.29999 7.6 5.69999 7.5 6.19999 7.6L7.89999 8L7.29999 8.8ZM16 18.9L13.3 20.4L12.9 18.4C13.8 18 14.6 17.4 15.3 16.8L16 16.1L16.4 17.8C16.6 18.3 16.3 18.8 16 18.9ZM16.7 8.8C15.9 8.8 15.2 8.1 15.2 7.3C15.2 6.5 15.9 5.8 16.7 5.8C17.5 5.8 18.2 6.5 18.2 7.3C18.2 8.1 17.6 8.8 16.7 8.8Z" fill="white"/>
</svg>
