<?xml version="1.0" encoding="UTF-8"?><svg id="Layer_2" xmlns="http://www.w3.org/2000/svg" viewBox="0 0 229.4 60.07"><defs><style>.cls-1{letter-spacing:-.02em;}.cls-2{letter-spacing:0em;}.cls-3{font-family:LFTEticaSB, 'LFT Etica';font-size:26.72px;}.cls-3,.cls-4{fill:#4ad6fb;}.cls-4,.cls-5{stroke-width:0px;}.cls-5{fill:#2c2d34;}.cls-6{letter-spacing:-.12em;}</style></defs><g id="Layer_1-2"><path class="cls-4" d="m33.48,24.79h1.68c.77,3,1.78,6.47,2.71,9.25h.07c.93-2.78,1.96-6.28,2.71-9.25h1.65c-.93,3.66-2.35,8.21-3.35,10.72h-2.15c-1-2.51-2.41-7.06-3.33-10.72Z"/><rect class="cls-4" x="31.01" y="24.56" width="6.76" height="1.39"/><path class="cls-5" d="m38.6,17.12C17.28,17.12,0,22.91,0,30.04s17.28,12.91,38.6,12.91,38.6-5.78,38.6-12.91-17.28-12.91-38.6-12.91Zm0,24.77c-19.57,0-35.44-5.31-35.44-11.85s15.87-11.85,35.44-11.85,35.44,5.31,35.44,11.85-15.87,11.85-35.44,11.85Z"/><path class="cls-5" d="m48.22,21.43C34.01,5.54,18.18-3.49,12.86,1.27c-5.31,4.76,1.9,21.49,16.12,37.38,14.22,15.89,30.05,24.91,35.36,20.16,5.31-4.76-1.9-21.49-16.12-37.38Zm-18.46,16.51C16.72,23.35,10.09,7.99,14.97,3.63c4.88-4.37,19.41,3.92,32.46,18.51,13.05,14.59,19.67,29.95,14.8,34.31-4.88,4.37-19.41-3.92-32.46-18.51Z"/><circle class="cls-4" cx="65" cy="20.98" r="3.86"/><circle class="cls-4" cx="11.81" cy="38.2" r="3.27"/><circle class="cls-4" cx="44.08" cy="51.58" r="2.28"/><text class="cls-3" transform="translate(85.58 37.76)"><tspan class="cls-6" x="0" y="0">T</tspan><tspan x="13.28" y="0">alent</tspan><tspan class="cls-1" x="75.88" y="0">v</tspan><tspan x="89.67" y="0">e</tspan><tspan class="cls-2" x="104.92" y="0">r</tspan><tspan x="114.68" y="0">se</tspan></text></g></svg>