<?xml version="1.0" encoding="UTF-8"?><svg id="Layer_2" xmlns="http://www.w3.org/2000/svg" viewBox="0 0 107.11 28.16"><defs><style>.cls-1{fill:#2c2d34;}.cls-2{fill:#4ad6fb;}</style></defs><g id="Layer_1-2"><path class="cls-2" d="m15.69,11.62h.79c.36,1.4.83,3.03,1.27,4.34h.03c.44-1.3.92-2.94,1.27-4.34h.77c-.44,1.72-1.1,3.85-1.57,5.02h-1.01c-.47-1.18-1.13-3.31-1.56-5.02Z"/><rect class="cls-2" x="14.54" y="11.51" width="3.17" height=".65"/><path class="cls-1" d="m18.09,8.03C8.1,8.03,0,10.74,0,14.08s8.1,6.05,18.09,6.05,18.09-2.71,18.09-6.05-8.1-6.05-18.09-6.05Zm0,11.61c-9.17,0-16.61-2.49-16.61-5.56s7.44-5.56,16.61-5.56,16.61,2.49,16.61,5.56-7.44,5.56-16.61,5.56Z"/><path class="cls-1" d="m22.6,10.04C15.94,2.6,8.52-1.63,6.03.59c-2.49,2.23.89,10.07,7.55,17.52,6.66,7.45,14.08,11.68,16.57,9.45,2.49-2.23-.89-10.07-7.55-17.52Zm-8.65,7.74C7.83,10.95,4.73,3.75,7.02,1.7c2.29-2.05,9.1,1.84,15.22,8.67,6.12,6.84,9.22,14.04,6.93,16.08-2.29,2.05-9.1-1.84-15.22-8.67Z"/><circle class="cls-2" cx="30.46" cy="9.83" r="1.81"/><circle class="cls-2" cx="5.54" cy="17.9" r="1.53"/><circle class="cls-2" cx="20.66" cy="24.17" r="1.07"/><path class="cls-2" d="m43.21,9.06h-2.71v-1.53h7.13v1.53h-2.69v7.49h-1.73v-7.49Z"/><path class="cls-2" d="m52.6,16.55h-1.33l-.18-.89c-.48.7-1.15,1.05-2.08,1.05-1.19,0-2.04-.65-2.04-1.94,0-1.05.75-2.09,3.02-2.09.38,0,.63.01.94.05v-.49c0-.79-.41-1.13-1.13-1.13-.8,0-1.32.25-1.95.63l-.56-1c.71-.56,1.7-.95,2.69-.95,1.65,0,2.62.71,2.62,2.43v4.33Zm-1.67-2.72c-.19-.04-.45-.06-.79-.06-.9,0-1.52.24-1.52.98,0,.49.31.74.9.74.86,0,1.4-.79,1.4-1.48v-.18Z"/><path class="cls-2" d="m54.26,16.55V7.53h1.67v9.02h-1.67Z"/><path class="cls-2" d="m63.25,15.86c-.78.58-1.68.85-2.68.85-1.99,0-3.19-1.2-3.19-3.42s1.24-3.51,3.21-3.51c1.83,0,2.84,1.06,2.84,3.21,0,.15-.01.7-.03.81h-4.27c.08.9.51,1.53,1.64,1.53.66,0,1.2-.18,1.94-.56l.54,1.09Zm-1.42-3.26c0-.84-.3-1.57-1.24-1.57-1.1,0-1.43,1.03-1.45,1.57h2.69Z"/><path class="cls-2" d="m66.18,9.94l.14.88c.48-.55,1.21-1.03,2.14-1.03,1.39,0,2.09.89,2.09,2.33v4.43h-1.67v-3.93c0-.99-.34-1.42-1.04-1.42-.66,0-1.19.5-1.39.74v4.61h-1.67v-6.61h1.39Z"/><path class="cls-2" d="m74.19,11.19v3.71c0,.39.12.54.43.54.2,0,.59-.05.78-.11l.16,1.14c-.44.15-1.05.25-1.55.25-.99,0-1.47-.54-1.47-1.48v-4.05h-.86v-.96l.89-.28.18-1.9h1.45v1.89h1.19v1.25h-1.19Z"/><path class="cls-2" d="m77.73,9.94l1.45,5,1.45-5h1.68l-2.18,6.61h-1.94l-2.21-6.61h1.74Z"/><path class="cls-2" d="m88.7,15.86c-.78.58-1.68.85-2.68.85-1.99,0-3.19-1.2-3.19-3.42s1.24-3.51,3.21-3.51c1.83,0,2.84,1.06,2.84,3.21,0,.15-.01.7-.03.81h-4.27c.08.9.51,1.53,1.64,1.53.66,0,1.2-.18,1.94-.56l.54,1.09Zm-1.42-3.26c0-.84-.3-1.57-1.24-1.57-1.1,0-1.43,1.03-1.45,1.57h2.69Z"/><path class="cls-2" d="m91.72,10.89c.31-.61.85-1.1,1.47-1.1.24,0,.46.06.65.14l-.12,1.52c-.21-.06-.39-.09-.63-.09-.5,0-.96.45-1.18.81v4.38h-1.67v-6.61h1.33l.15.95Z"/><path class="cls-2" d="m95.1,14.56c.63.48,1.45.85,2.09.85.6,0,.93-.26.93-.68,0-.44-.23-.64-1.32-.91-1.43-.36-2.03-.9-2.03-1.99,0-1.28,1-2.04,2.51-2.04,1.05,0,1.94.38,2.63,1l-.74.96c-.63-.45-1.24-.7-1.82-.7-.61,0-.92.21-.92.59,0,.49.44.63,1.44.91,1.4.4,2.04.86,2.04,1.97,0,1.4-1.04,2.19-2.64,2.19-1.22,0-2.24-.5-2.92-1.15l.74-1Z"/><path class="cls-2" d="m106.93,15.86c-.78.58-1.68.85-2.68.85-1.99,0-3.19-1.2-3.19-3.42s1.24-3.51,3.21-3.51c1.83,0,2.84,1.06,2.84,3.21,0,.15-.01.7-.03.81h-4.27c.08.9.51,1.53,1.64,1.53.66,0,1.2-.18,1.94-.56l.54,1.09Zm-1.42-3.26c0-.84-.3-1.57-1.24-1.57-1.1,0-1.43,1.03-1.45,1.57h2.69Z"/><path class="cls-1" d="m40.83,20.24h1.03v.28h-1.03v.89h1.03v.28h-1.36v-2.62h1.36v.28h-1.03v.87Z"/><path class="cls-1" d="m42.66,19.89v.25c.14-.21.29-.29.52-.29.25,0,.4.11.49.33.13-.23.3-.33.57-.33.21,0,.37.07.46.19.09.11.11.22.11.5v1.16h-.3v-1.09c0-.22,0-.27-.05-.34-.06-.09-.17-.15-.31-.15-.26,0-.41.18-.41.5v1.09h-.3v-1.08c0-.18-.02-.27-.06-.35-.05-.1-.16-.16-.29-.16-.26,0-.42.19-.42.5v1.08h-.3v-1.81h.3Z"/><path class="cls-1" d="m45.65,19.89v.33c.17-.27.36-.37.66-.37.5,0,.85.38.85.93s-.35.96-.85.96c-.14,0-.27-.03-.39-.09-.11-.05-.17-.1-.26-.23v1.13h-.3v-2.65h.3Zm0,.93c0,.4.24.66.6.66s.6-.28.6-.69c0-.21-.05-.37-.16-.49-.1-.12-.27-.19-.43-.19-.36,0-.61.29-.61.71Z"/><path class="cls-1" d="m49.31,20.8c0,.53-.41.94-.93.94s-.91-.39-.91-.95.38-.94.93-.94.91.4.91.95Zm-1.53,0c0,.4.25.67.62.67s.61-.28.61-.67-.24-.67-.61-.67-.62.27-.62.67Z"/><path class="cls-1" d="m49.77,21.7v-2.62h.3v2.62h-.3Z"/><path class="cls-1" d="m51.72,19.89h.33l-1.08,2.68h-.33l.38-.92-.64-1.75h.32l.49,1.34.54-1.34Z"/><path class="cls-1" d="m52.67,19.89v.25c.14-.21.29-.29.52-.29.25,0,.4.11.49.33.13-.23.3-.33.57-.33.21,0,.37.07.46.19.09.11.11.22.11.5v1.16h-.3v-1.09c0-.22,0-.27-.05-.34-.06-.09-.17-.15-.31-.15-.26,0-.41.18-.41.5v1.09h-.3v-1.08c0-.18-.02-.27-.06-.35-.05-.1-.16-.16-.29-.16-.26,0-.42.19-.42.5v1.08h-.3v-1.81h.3Z"/><path class="cls-1" d="m55.57,20.89c.02.15.04.23.12.33.12.16.29.25.49.25.22,0,.43-.12.54-.31l.26.1c-.15.3-.46.49-.8.49-.54,0-.92-.39-.92-.94s.38-.95.91-.95.92.4.92.92c0,.02,0,.07,0,.12h-1.51Zm1.19-.22c-.01-.14-.04-.22-.1-.31-.11-.15-.3-.25-.5-.25s-.38.09-.49.25c-.06.09-.08.16-.1.31h1.19Z"/><path class="cls-1" d="m57.81,19.89v.26c.16-.21.31-.3.54-.3.17,0,.31.05.42.15.11.11.15.24.15.48v1.22h-.3v-1.15c0-.16-.02-.25-.07-.31-.05-.07-.16-.12-.28-.12-.13,0-.25.05-.35.15-.09.09-.12.18-.12.33v1.1h-.3v-1.81h.3Z"/><path class="cls-1" d="m59.83,21.33c0,.09.03.11.14.11h.14v.26h-.28c-.21,0-.29-.08-.29-.28v-1.26h-.25v-.26h.25v-.57h.3v.57h.27v.26h-.27v1.18Z"/><path class="cls-1" d="m62.06,21.7h-.33v-2.62h.3l1.4,1.97v-1.97h.33v2.62h-.29l-1.41-2v2Z"/><path class="cls-1" d="m65.75,19.89h.3v1.81h-.3v-.35c-.18.27-.39.39-.66.39-.5,0-.85-.39-.85-.94s.36-.95.86-.95c.27,0,.47.11.65.34v-.3Zm-1.05.44c-.09.13-.15.3-.15.48,0,.38.25.67.58.67s.62-.32.62-.71-.25-.66-.61-.66c-.2,0-.33.07-.44.22Z"/><path class="cls-1" d="m68.02,19.89l-.68,1.81h-.31l-.66-1.81h.31l.51,1.38.53-1.38h.31Z"/><path class="cls-1" d="m68.68,19.39c0,.11-.09.19-.19.19s-.19-.08-.19-.19.08-.19.19-.19.19.09.19.2Zm-.04,2.31h-.3v-1.81h.3v1.81Z"/><path class="cls-1" d="m70.57,19.89h.3v1.82c0,.3-.08.51-.24.66-.16.16-.39.24-.67.24-.34,0-.6-.11-.8-.33l.21-.2c.08.09.12.12.17.16.1.06.27.11.42.11.19,0,.37-.07.47-.18.09-.1.14-.24.14-.43v-.38c-.18.27-.38.39-.67.39-.48,0-.83-.4-.83-.94,0-.29.1-.57.29-.74.14-.14.34-.21.57-.21.27,0,.46.1.64.35v-.31Zm-1.19.9c0,.39.25.68.59.68.17,0,.34-.08.46-.22.08-.09.13-.27.13-.45,0-.24-.04-.36-.14-.48-.11-.12-.28-.2-.44-.2-.35,0-.6.27-.6.67Z"/><path class="cls-1" d="m72.82,19.89h.3v1.81h-.3v-.35c-.18.27-.38.39-.66.39-.5,0-.85-.39-.85-.94s.36-.95.86-.95c.27,0,.48.11.65.34v-.3Zm-1.05.44c-.09.13-.15.3-.15.48,0,.38.25.67.58.67s.62-.32.62-.71-.25-.66-.61-.66c-.2,0-.33.07-.44.22Z"/><path class="cls-1" d="m74.02,21.33c0,.09.03.11.14.11h.14v.26h-.28c-.21,0-.29-.08-.29-.28v-1.26h-.25v-.26h.25v-.57h.3v.57h.27v.26h-.27v1.18Z"/><path class="cls-1" d="m75.04,19.39c0,.11-.08.19-.19.19s-.19-.08-.19-.19.08-.19.19-.19.19.09.19.2Zm-.04,2.31h-.3v-1.81h.3v1.81Z"/><path class="cls-1" d="m77.29,20.8c0,.53-.41.94-.93.94s-.91-.39-.91-.95.38-.94.93-.94.91.4.91.95Zm-1.53,0c0,.4.25.67.62.67s.61-.28.61-.67-.24-.67-.61-.67-.62.27-.62.67Z"/><path class="cls-1" d="m78.04,19.89v.26c.16-.21.31-.3.54-.3.17,0,.31.05.42.15.11.11.15.24.15.48v1.22h-.3v-1.15c0-.16-.02-.25-.07-.31-.05-.07-.16-.12-.28-.12-.13,0-.25.05-.35.15-.09.09-.12.18-.12.33v1.1h-.3v-1.81h.3Z"/></g></svg>