<?xml version="1.0" encoding="UTF-8"?><svg id="Layer_2" xmlns="http://www.w3.org/2000/svg" viewBox="0 0 227.01 60.07"><defs><style>.cls-1{fill:#4ad6fb;}.cls-1,.cls-2{stroke-width:0px;}.cls-2{fill:#2c2d34;}</style></defs><g id="Layer_1-2"><path class="cls-1" d="m33.48,24.79h1.68c.77,3,1.78,6.47,2.71,9.25h.07c.93-2.78,1.96-6.28,2.71-9.25h1.65c-.93,3.66-2.35,8.21-3.35,10.72h-2.15c-1-2.51-2.41-7.06-3.33-10.72Z"/><rect class="cls-1" x="31.01" y="24.56" width="6.76" height="1.39"/><path class="cls-2" d="m38.6,17.12C17.28,17.12,0,22.91,0,30.04s17.28,12.91,38.6,12.91,38.6-5.78,38.6-12.91-17.28-12.91-38.6-12.91Zm0,24.77c-19.57,0-35.44-5.31-35.44-11.85s15.87-11.85,35.44-11.85,35.44,5.31,35.44,11.85-15.87,11.85-35.44,11.85Z"/><path class="cls-2" d="m48.22,21.43C34.01,5.54,18.18-3.49,12.86,1.27c-5.31,4.76,1.9,21.49,16.12,37.38,14.22,15.89,30.05,24.91,35.36,20.16,5.31-4.76-1.9-21.49-16.12-37.38Zm-18.46,16.51C16.72,23.35,10.09,7.99,14.97,3.63c4.88-4.37,19.41,3.92,32.46,18.51,13.05,14.59,19.67,29.95,14.8,34.31-4.88,4.37-19.41-3.92-32.46-18.51Z"/><circle class="cls-1" cx="65" cy="20.98" r="3.86"/><circle class="cls-1" cx="11.81" cy="38.2" r="3.27"/><circle class="cls-1" cx="44.08" cy="51.58" r="2.28"/><path class="cls-1" d="m90.63,19.5h-5.77v-3.26h15.2v3.26h-5.74v15.98h-3.69v-15.98Z"/><path class="cls-1" d="m110.66,35.47h-2.83l-.37-1.9c-1.01,1.5-2.46,2.24-4.43,2.24-2.54,0-4.36-1.39-4.36-4.14,0-2.24,1.6-4.46,6.44-4.46.8,0,1.34.03,2,.11v-1.04c0-1.68-.88-2.4-2.41-2.4-1.71,0-2.8.53-4.17,1.34l-1.2-2.14c1.52-1.2,3.63-2.03,5.74-2.03,3.53,0,5.58,1.52,5.58,5.18v9.25Zm-3.55-5.8c-.4-.08-.96-.13-1.68-.13-1.92,0-3.23.51-3.23,2.08,0,1.04.67,1.58,1.92,1.58,1.84,0,2.99-1.68,2.99-3.15v-.37Z"/><path class="cls-1" d="m114.22,35.47v-19.24h3.55v19.24h-3.55Z"/><path class="cls-1" d="m133.4,34c-1.66,1.23-3.58,1.82-5.72,1.82-4.25,0-6.81-2.56-6.81-7.29s2.64-7.48,6.84-7.48c3.9,0,6.06,2.27,6.06,6.84,0,.32-.03,1.5-.05,1.74h-9.11c.16,1.92,1.1,3.26,3.5,3.26,1.42,0,2.56-.37,4.14-1.2l1.15,2.32Zm-3.02-6.95c0-1.79-.64-3.34-2.64-3.34-2.35,0-3.05,2.19-3.1,3.34h5.74Z"/><path class="cls-1" d="m139.65,21.37l.29,1.87c1.02-1.18,2.59-2.19,4.57-2.19,2.97,0,4.46,1.9,4.46,4.97v9.46h-3.55v-8.39c0-2.11-.72-3.02-2.22-3.02-1.42,0-2.54,1.07-2.97,1.58v9.83h-3.55v-14.11h2.97Z"/><path class="cls-1" d="m156.73,24.04v7.91c0,.83.27,1.15.91,1.15.43,0,1.26-.11,1.66-.24l.35,2.43c-.94.32-2.24.53-3.31.53-2.11,0-3.13-1.15-3.13-3.15v-8.63h-1.84v-2.06l1.9-.59.37-4.06h3.1v4.03h2.54v2.67h-2.54Z"/><path class="cls-1" d="m164.29,21.37l3.1,10.66,3.1-10.66h3.58l-4.65,14.11h-4.14l-4.7-14.11h3.71Z"/><path class="cls-1" d="m187.69,34c-1.66,1.23-3.58,1.82-5.72,1.82-4.25,0-6.81-2.56-6.81-7.29s2.64-7.48,6.84-7.48c3.9,0,6.06,2.27,6.06,6.84,0,.32-.03,1.5-.05,1.74h-9.11c.16,1.92,1.1,3.26,3.5,3.26,1.42,0,2.56-.37,4.14-1.2l1.15,2.32Zm-3.02-6.95c0-1.79-.64-3.34-2.64-3.34-2.35,0-3.05,2.19-3.1,3.34h5.74Z"/><path class="cls-1" d="m194.13,23.4c.67-1.31,1.82-2.35,3.13-2.35.51,0,.99.13,1.39.29l-.27,3.23c-.45-.13-.83-.19-1.34-.19-1.07,0-2.06.96-2.51,1.74v9.35h-3.55v-14.11h2.83l.32,2.03Z"/><path class="cls-1" d="m201.35,31.23c1.34,1.01,3.1,1.82,4.46,1.82,1.28,0,1.98-.56,1.98-1.44,0-.94-.48-1.36-2.81-1.95-3.05-.77-4.33-1.92-4.33-4.25,0-2.72,2.14-4.35,5.34-4.35,2.24,0,4.14.8,5.61,2.14l-1.58,2.06c-1.34-.96-2.64-1.5-3.87-1.5-1.31,0-1.95.45-1.95,1.26,0,1.04.93,1.34,3.07,1.95,2.99.86,4.36,1.84,4.36,4.2,0,2.99-2.22,4.67-5.64,4.67-2.59,0-4.78-1.07-6.23-2.46l1.58-2.14Z"/><path class="cls-1" d="m226.6,34c-1.66,1.23-3.58,1.82-5.72,1.82-4.25,0-6.81-2.56-6.81-7.29s2.64-7.48,6.84-7.48c3.9,0,6.06,2.27,6.06,6.84,0,.32-.03,1.5-.05,1.74h-9.11c.16,1.92,1.1,3.26,3.5,3.26,1.42,0,2.56-.37,4.14-1.2l1.15,2.32Zm-3.02-6.95c0-1.79-.64-3.34-2.64-3.34-2.35,0-3.05,2.19-3.1,3.34h5.74Z"/><path class="cls-2" d="m87.26,51.62h-.77v-6.11h.7l3.26,4.6v-4.6h.77v6.11h-.68l-3.29-4.67v4.67Z"/><path class="cls-2" d="m95.87,47.4h.7v4.22h-.7v-.82c-.42.63-.9.92-1.54.92-1.16,0-1.99-.92-1.99-2.2s.84-2.23,2.01-2.23c.64,0,1.11.25,1.52.8v-.7Zm-2.45,1.03c-.22.3-.35.71-.35,1.12,0,.9.59,1.58,1.36,1.58s1.45-.74,1.45-1.65-.59-1.55-1.43-1.55c-.46,0-.78.16-1.03.5Z"/><path class="cls-2" d="m101.18,47.4l-1.59,4.22h-.73l-1.55-4.22h.73l1.19,3.22,1.23-3.22h.72Z"/><path class="cls-2" d="m102.71,46.22c0,.25-.2.44-.45.44s-.44-.19-.44-.45.19-.45.45-.45.44.2.44.46Zm-.1,5.4h-.7v-4.22h.7v4.22Z"/><path class="cls-2" d="m107.12,47.4h.7v4.25c0,.71-.17,1.18-.56,1.55-.38.37-.92.56-1.56.56-.79,0-1.41-.26-1.87-.77l.48-.48c.19.2.28.28.4.37.24.15.63.25.99.25.44,0,.86-.16,1.1-.41.21-.23.32-.57.32-1.01v-.89c-.41.62-.9.91-1.56.91-1.12,0-1.95-.94-1.95-2.2,0-.68.25-1.33.67-1.73.34-.33.8-.49,1.34-.49.64,0,1.07.24,1.5.82v-.72Zm-2.78,2.1c0,.91.59,1.58,1.38,1.58.4,0,.8-.19,1.07-.51.18-.21.3-.62.3-1.04,0-.55-.08-.84-.33-1.12-.26-.28-.65-.47-1.03-.47-.82,0-1.4.64-1.4,1.56Z"/><path class="cls-2" d="m112.37,47.4h.7v4.22h-.7v-.82c-.42.63-.9.92-1.54.92-1.16,0-1.99-.92-1.99-2.2s.84-2.23,2.01-2.23c.64,0,1.11.25,1.52.8v-.7Zm-2.45,1.03c-.22.3-.35.71-.35,1.12,0,.9.59,1.58,1.36,1.58s1.45-.74,1.45-1.65-.59-1.55-1.43-1.55c-.46,0-.78.16-1.03.5Z"/><path class="cls-2" d="m115.18,50.76c0,.21.06.26.32.26h.32v.61h-.65c-.49,0-.69-.19-.69-.66v-2.95h-.59v-.61h.59v-1.33h.7v1.33h.64v.61h-.64v2.75Z"/><path class="cls-2" d="m117.54,46.22c0,.25-.2.44-.45.44s-.44-.19-.44-.45.19-.45.45-.45.44.2.44.46Zm-.1,5.4h-.7v-4.22h.7v4.22Z"/><path class="cls-2" d="m119.54,47.4v.6c.37-.49.73-.7,1.26-.7.38,0,.73.13.98.35.27.26.36.55.36,1.13v2.85h-.7v-2.69c0-.38-.05-.58-.16-.72-.13-.17-.38-.28-.66-.28-.31,0-.6.12-.81.36-.2.22-.27.42-.27.77v2.57h-.7v-4.22h.7Z"/><path class="cls-2" d="m126.61,47.4h.7v4.25c0,.71-.17,1.18-.56,1.55-.38.37-.92.56-1.56.56-.79,0-1.41-.26-1.87-.77l.48-.48c.19.2.28.28.4.37.24.15.63.25.99.25.44,0,.86-.16,1.1-.41.21-.23.32-.57.32-1.01v-.89c-.41.62-.9.91-1.56.91-1.12,0-1.95-.94-1.95-2.2,0-.68.25-1.33.67-1.73.34-.33.8-.49,1.34-.49.64,0,1.07.24,1.5.82v-.72Zm-2.78,2.1c0,.91.59,1.58,1.38,1.58.4,0,.8-.19,1.07-.51.18-.21.3-.62.3-1.04,0-.55-.08-.84-.33-1.12-.26-.28-.65-.47-1.03-.47-.82,0-1.4.64-1.4,1.56Z"/><path class="cls-2" d="m132.21,48.21h2.41v.66h-2.41v2.09h2.41v.66h-3.18v-6.11h3.18v.66h-2.41v2.04Z"/><path class="cls-2" d="m136.48,47.4v.59c.32-.49.68-.69,1.2-.69.58,0,.94.25,1.14.77.31-.54.7-.77,1.34-.77.49,0,.85.16,1.07.45.2.27.26.5.26,1.17v2.7h-.7v-2.54c0-.51-.02-.63-.12-.81-.13-.22-.4-.36-.73-.36-.61,0-.95.41-.95,1.16v2.54h-.7v-2.53c0-.41-.04-.62-.14-.81-.12-.24-.38-.37-.69-.37-.61,0-.98.44-.98,1.17v2.53h-.7v-4.22h.7Z"/><path class="cls-2" d="m143.48,47.4v.77c.4-.62.83-.87,1.54-.87,1.17,0,1.99.9,1.99,2.18s-.82,2.24-1.99,2.24c-.33,0-.63-.07-.93-.22-.26-.13-.38-.24-.61-.54v2.64h-.7v-6.2h.7Zm0,2.18c0,.93.56,1.54,1.39,1.54s1.39-.65,1.39-1.61c0-.49-.12-.87-.37-1.15-.25-.27-.62-.44-1-.44-.84,0-1.42.67-1.42,1.66Z"/><path class="cls-2" d="m148.06,51.62v-6.11h.7v6.11h-.7Z"/><path class="cls-2" d="m154.11,49.52c0,1.24-.95,2.2-2.16,2.2s-2.13-.92-2.13-2.22.88-2.21,2.16-2.21,2.13.92,2.13,2.23Zm-3.58,0c0,.93.58,1.57,1.44,1.57s1.43-.65,1.43-1.57-.57-1.58-1.42-1.58-1.45.63-1.45,1.58Z"/><path class="cls-2" d="m157.57,47.4h.76l-2.52,6.26h-.76l.88-2.16-1.5-4.1h.74l1.14,3.13,1.26-3.13Z"/><path class="cls-2" d="m159.77,47.4v.59c.32-.49.68-.69,1.2-.69.58,0,.94.25,1.14.77.31-.54.7-.77,1.34-.77.49,0,.85.16,1.07.45.2.27.26.5.26,1.17v2.7h-.7v-2.54c0-.51-.02-.63-.12-.81-.13-.22-.4-.36-.73-.36-.61,0-.95.41-.95,1.16v2.54h-.7v-2.53c0-.41-.04-.62-.14-.81-.12-.24-.38-.37-.69-.37-.61,0-.98.44-.98,1.17v2.53h-.7v-4.22h.7Z"/><path class="cls-2" d="m166.55,49.73c.04.36.1.54.27.77.28.38.68.58,1.14.58.52,0,1.02-.28,1.26-.72l.61.23c-.35.7-1.07,1.14-1.88,1.14-1.26,0-2.15-.92-2.15-2.2s.89-2.23,2.13-2.23,2.14.92,2.14,2.16c0,.05,0,.17,0,.27h-3.52Zm2.79-.51c-.03-.33-.09-.51-.24-.72-.27-.36-.7-.58-1.16-.58s-.89.22-1.14.59c-.13.2-.18.38-.24.71h2.78Z"/><path class="cls-2" d="m171.78,47.4v.6c.37-.49.73-.7,1.26-.7.38,0,.73.13.98.35.27.26.36.55.36,1.13v2.85h-.7v-2.69c0-.38-.05-.58-.16-.72-.13-.17-.38-.28-.66-.28-.31,0-.6.12-.81.36-.2.22-.27.42-.27.77v2.57h-.7v-4.22h.7Z"/><path class="cls-2" d="m176.49,50.76c0,.21.06.26.32.26h.32v.61h-.65c-.49,0-.69-.19-.69-.66v-2.95h-.59v-.61h.59v-1.33h.7v1.33h.64v.61h-.64v2.75Z"/><path class="cls-2" d="m185.72,50.7c-.61.72-1.29,1.04-2.23,1.04-.85,0-1.58-.31-2.1-.9-.51-.58-.82-1.41-.82-2.26,0-1.83,1.24-3.17,2.92-3.17.55,0,1.09.15,1.53.41.25.16.41.3.71.63l-.53.49c-.6-.61-1.04-.83-1.7-.83-1.25,0-2.15,1.04-2.15,2.46s.93,2.46,2.19,2.46c.67,0,1.18-.27,1.66-.84l.51.51Z"/><path class="cls-2" d="m190.57,49.52c0,1.24-.95,2.2-2.16,2.2s-2.13-.92-2.13-2.22.88-2.21,2.16-2.21,2.13.92,2.13,2.23Zm-3.58,0c0,.93.58,1.57,1.44,1.57s1.43-.65,1.43-1.57-.57-1.58-1.42-1.58-1.45.63-1.45,1.58Z"/><path class="cls-2" d="m192.33,47.4v.6c.37-.49.73-.7,1.26-.7.38,0,.73.13.98.35.27.26.36.55.36,1.13v2.85h-.7v-2.69c0-.38-.05-.58-.16-.72-.13-.17-.38-.28-.66-.28-.31,0-.6.12-.81.36-.2.22-.27.42-.27.77v2.57h-.7v-4.22h.7Z"/><path class="cls-2" d="m196.99,47.4v.6c.37-.49.73-.7,1.26-.7.38,0,.73.13.98.35.27.26.36.55.36,1.13v2.85h-.7v-2.69c0-.38-.05-.58-.16-.72-.13-.17-.38-.28-.66-.28-.31,0-.6.12-.81.36-.2.22-.27.42-.27.77v2.57h-.7v-4.22h.7Z"/><path class="cls-2" d="m201.36,49.73c.04.36.1.54.27.77.28.38.68.58,1.14.58.52,0,1.02-.28,1.26-.72l.61.23c-.35.7-1.07,1.14-1.88,1.14-1.26,0-2.15-.92-2.15-2.2s.89-2.23,2.13-2.23,2.14.92,2.14,2.16c0,.05,0,.17,0,.27h-3.52Zm2.79-.51c-.03-.33-.09-.51-.24-.72-.27-.36-.7-.58-1.16-.58s-.89.22-1.14.59c-.13.2-.18.38-.24.71h2.78Z"/><path class="cls-2" d="m209.18,51.1c-.48.43-.94.62-1.56.62-1.21,0-2.07-.92-2.07-2.2s.87-2.23,2.11-2.23c.6,0,1.1.2,1.54.63l-.45.45c-.32-.29-.68-.44-1.07-.44-.83,0-1.41.64-1.41,1.56s.58,1.58,1.4,1.58c.41,0,.74-.14,1.08-.46l.43.48Z"/><path class="cls-2" d="m210.98,50.76c0,.21.06.26.32.26h.32v.61h-.65c-.49,0-.69-.19-.69-.66v-2.95h-.59v-.61h.59v-1.33h.7v1.33h.64v.61h-.64v2.75Z"/><path class="cls-2" d="m213.34,46.22c0,.25-.2.44-.45.44s-.44-.19-.44-.45.19-.45.45-.45.44.2.44.46Zm-.1,5.4h-.7v-4.22h.7v4.22Z"/><path class="cls-2" d="m218.6,49.52c0,1.24-.95,2.2-2.16,2.2s-2.13-.92-2.13-2.22.88-2.21,2.16-2.21,2.13.92,2.13,2.23Zm-3.58,0c0,.93.58,1.57,1.44,1.57s1.43-.65,1.43-1.57-.57-1.58-1.42-1.58-1.45.63-1.45,1.58Z"/><path class="cls-2" d="m220.35,47.4v.6c.37-.49.73-.7,1.26-.7.38,0,.73.13.98.35.27.26.36.55.36,1.13v2.85h-.7v-2.69c0-.38-.05-.58-.16-.72-.13-.17-.38-.28-.66-.28-.31,0-.6.12-.81.36-.2.22-.27.42-.27.77v2.57h-.7v-4.22h.7Z"/><path class="cls-2" d="m226.27,48.55v-.05c0-.39-.32-.64-.81-.64s-.76.24-.76.61.18.5.94.71c.54.15.82.28,1.03.48.21.21.34.51.34.83,0,.73-.6,1.23-1.5,1.23-.96,0-1.5-.45-1.58-1.3h.69c.05.48.36.73.89.73.48,0,.79-.25.79-.62s-.24-.55-.96-.73c-.92-.25-1.33-.63-1.33-1.27,0-.73.6-1.23,1.48-1.23s1.44.46,1.48,1.26h-.7Z"/></g></svg>