<?xml version="1.0" encoding="UTF-8"?><svg id="Layer_2" xmlns="http://www.w3.org/2000/svg" viewBox="0 0 226.97 60.07"><defs><style>.cls-1{fill:#4ad6fb;}.cls-1,.cls-2{stroke-width:0px;}.cls-2{fill:#2c2d34;}</style></defs><g id="Layer_1-2"><path class="cls-1" d="m33.48,24.79h1.68c.77,3,1.78,6.47,2.71,9.25h.07c.93-2.78,1.96-6.28,2.71-9.25h1.65c-.93,3.66-2.35,8.21-3.35,10.72h-2.15c-1-2.51-2.41-7.06-3.33-10.72Z"/><rect class="cls-1" x="31.01" y="24.56" width="6.76" height="1.39"/><path class="cls-2" d="m38.6,17.12C17.28,17.12,0,22.91,0,30.04s17.28,12.91,38.6,12.91,38.6-5.78,38.6-12.91-17.28-12.91-38.6-12.91Zm0,24.77c-19.57,0-35.44-5.31-35.44-11.85s15.87-11.85,35.44-11.85,35.44,5.31,35.44,11.85-15.87,11.85-35.44,11.85Z"/><path class="cls-2" d="m48.22,21.43C34.01,5.54,18.18-3.49,12.86,1.27c-5.31,4.76,1.9,21.49,16.12,37.38,14.22,15.89,30.05,24.91,35.36,20.16,5.31-4.76-1.9-21.49-16.12-37.38Zm-18.46,16.51C16.72,23.35,10.09,7.99,14.97,3.63c4.88-4.37,19.41,3.92,32.46,18.51,13.05,14.59,19.67,29.95,14.8,34.31-4.88,4.37-19.41-3.92-32.46-18.51Z"/><circle class="cls-1" cx="65" cy="20.98" r="3.86"/><circle class="cls-1" cx="11.81" cy="38.2" r="3.27"/><circle class="cls-1" cx="44.08" cy="51.58" r="2.28"/><path class="cls-1" d="m90.63,19.5h-5.77v-3.26h15.2v3.26h-5.74v15.98h-3.69v-15.98Z"/><path class="cls-1" d="m110.66,35.47h-2.83l-.37-1.9c-1.01,1.5-2.46,2.24-4.43,2.24-2.54,0-4.36-1.39-4.36-4.14,0-2.24,1.6-4.46,6.44-4.46.8,0,1.34.03,2,.11v-1.04c0-1.68-.88-2.4-2.41-2.4-1.71,0-2.8.53-4.17,1.34l-1.2-2.14c1.52-1.2,3.63-2.03,5.74-2.03,3.53,0,5.58,1.52,5.58,5.18v9.25Zm-3.55-5.8c-.4-.08-.96-.13-1.68-.13-1.92,0-3.23.51-3.23,2.08,0,1.04.67,1.58,1.92,1.58,1.84,0,2.99-1.68,2.99-3.15v-.37Z"/><path class="cls-1" d="m114.22,35.47v-19.24h3.55v19.24h-3.55Z"/><path class="cls-1" d="m133.4,34c-1.66,1.23-3.58,1.82-5.72,1.82-4.25,0-6.81-2.56-6.81-7.29s2.64-7.48,6.84-7.48c3.9,0,6.06,2.27,6.06,6.84,0,.32-.03,1.5-.05,1.74h-9.11c.16,1.92,1.1,3.26,3.5,3.26,1.42,0,2.56-.37,4.14-1.2l1.15,2.32Zm-3.02-6.95c0-1.79-.64-3.34-2.64-3.34-2.35,0-3.05,2.19-3.1,3.34h5.74Z"/><path class="cls-1" d="m139.65,21.37l.29,1.87c1.02-1.18,2.59-2.19,4.57-2.19,2.97,0,4.46,1.9,4.46,4.97v9.46h-3.55v-8.39c0-2.11-.72-3.02-2.22-3.02-1.42,0-2.54,1.07-2.97,1.58v9.83h-3.55v-14.11h2.97Z"/><path class="cls-1" d="m156.73,24.04v7.91c0,.83.27,1.15.91,1.15.43,0,1.26-.11,1.66-.24l.35,2.43c-.94.32-2.24.53-3.31.53-2.11,0-3.13-1.15-3.13-3.15v-8.63h-1.84v-2.06l1.9-.59.37-4.06h3.1v4.03h2.54v2.67h-2.54Z"/><path class="cls-1" d="m164.29,21.37l3.1,10.66,3.1-10.66h3.58l-4.65,14.11h-4.14l-4.7-14.11h3.71Z"/><path class="cls-1" d="m187.69,34c-1.66,1.23-3.58,1.82-5.72,1.82-4.25,0-6.81-2.56-6.81-7.29s2.64-7.48,6.84-7.48c3.9,0,6.06,2.27,6.06,6.84,0,.32-.03,1.5-.05,1.74h-9.11c.16,1.92,1.1,3.26,3.5,3.26,1.42,0,2.56-.37,4.14-1.2l1.15,2.32Zm-3.02-6.95c0-1.79-.64-3.34-2.64-3.34-2.35,0-3.05,2.19-3.1,3.34h5.74Z"/><path class="cls-1" d="m194.13,23.4c.67-1.31,1.82-2.35,3.13-2.35.51,0,.99.13,1.39.29l-.27,3.23c-.45-.13-.83-.19-1.34-.19-1.07,0-2.06.96-2.51,1.74v9.35h-3.55v-14.11h2.83l.32,2.03Z"/><path class="cls-1" d="m201.35,31.23c1.34,1.01,3.1,1.82,4.46,1.82,1.28,0,1.98-.56,1.98-1.44,0-.94-.48-1.36-2.81-1.95-3.05-.77-4.33-1.92-4.33-4.25,0-2.72,2.14-4.35,5.34-4.35,2.24,0,4.14.8,5.61,2.14l-1.58,2.06c-1.34-.96-2.64-1.5-3.87-1.5-1.31,0-1.95.45-1.95,1.26,0,1.04.93,1.34,3.07,1.95,2.99.86,4.36,1.84,4.36,4.2,0,2.99-2.22,4.67-5.64,4.67-2.59,0-4.78-1.07-6.23-2.46l1.58-2.14Z"/><path class="cls-1" d="m226.59,34c-1.66,1.23-3.58,1.82-5.72,1.82-4.25,0-6.81-2.56-6.81-7.29s2.64-7.48,6.84-7.48c3.9,0,6.06,2.27,6.06,6.84,0,.32-.03,1.5-.05,1.74h-9.11c.16,1.92,1.1,3.26,3.5,3.26,1.42,0,2.56-.37,4.14-1.2l1.15,2.32Zm-3.02-6.95c0-1.79-.64-3.34-2.64-3.34-2.35,0-3.05,2.19-3.1,3.34h5.74Z"/><path class="cls-2" d="m86.82,46.76c.04.79.47,1.2,1.22,1.2s1.33-.48,1.33-1.17c0-.6-.31-.88-1.4-1.24-.82-.28-1.09-.41-1.4-.69-.35-.32-.54-.78-.54-1.31,0-1.17.84-1.97,2.06-1.97s2.02.78,2.05,1.98h-.87c-.01-.35-.05-.52-.17-.71-.2-.3-.58-.49-1.03-.49-.68,0-1.17.47-1.17,1.13,0,.33.15.62.39.8.22.16.4.24,1.11.49.74.26,1.09.45,1.37.75.3.32.47.76.47,1.22,0,1.19-.88,2-2.18,2-.88,0-1.48-.31-1.84-.93-.17-.28-.24-.57-.24-.9v-.15h.83Z"/><path class="cls-2" d="m92.25,43.84v.66c.36-.55.77-.78,1.36-.78.65,0,1.07.28,1.29.87.35-.61.8-.87,1.51-.87.55,0,.96.18,1.21.51.23.3.29.57.29,1.33v3.06h-.79v-2.87c0-.58-.02-.71-.13-.91-.15-.25-.46-.4-.83-.4-.69,0-1.08.47-1.08,1.31v2.87h-.79v-2.86c0-.47-.04-.7-.16-.91-.14-.27-.42-.41-.78-.41-.69,0-1.11.5-1.11,1.33v2.86h-.79v-4.78h.79Z"/><path class="cls-2" d="m103.06,43.84h.79v4.78h-.79v-.92c-.48.71-1.02,1.04-1.74,1.04-1.32,0-2.25-1.04-2.25-2.49s.95-2.52,2.27-2.52c.73,0,1.25.28,1.72.9v-.79Zm-2.77,1.16c-.25.34-.39.8-.39,1.26,0,1.02.66,1.78,1.53,1.78s1.64-.84,1.64-1.87-.66-1.75-1.62-1.75c-.52,0-.88.18-1.16.57Z"/><path class="cls-2" d="m106.22,43.84v.81c.15-.34.25-.49.43-.63.24-.19.57-.29.91-.29h.19v.8c-.08-.01-.17-.01-.22-.01-.43,0-.8.2-1.04.55-.21.3-.28.58-.28,1.13v2.42h-.79v-4.78h.79Z"/><path class="cls-2" d="m109.79,47.64c.01.24.07.29.36.29h.36v.68h-.74c-.56-.01-.78-.22-.78-.75v-3.34h-.66v-.69h.66v-1.5h.79v1.5h.73v.69h-.73v3.11Z"/><path class="cls-2" d="m111.99,46.48c.04.4.11.61.31.87.31.42.77.65,1.29.65.59,0,1.15-.32,1.43-.82l.69.26c-.39.8-1.21,1.28-2.12,1.28-1.42,0-2.43-1.04-2.43-2.49s1.01-2.52,2.4-2.52,2.42,1.05,2.42,2.45c0,.06,0,.2-.01.31h-3.98Zm3.15-.58c-.03-.37-.1-.58-.27-.82-.3-.4-.79-.65-1.32-.65s-1.01.25-1.28.66c-.15.23-.21.42-.27.81h3.14Z"/><path class="cls-2" d="m117.91,43.84v.81c.15-.34.25-.49.43-.63.24-.19.57-.29.91-.29h.19v.8c-.08-.01-.17-.01-.22-.01-.43,0-.8.2-1.04.55-.21.3-.28.58-.28,1.13v2.42h-.79v-4.78h.79Z"/><path class="cls-2" d="m124.38,44.76h2.73v.75h-2.73v2.36h2.73v.75h-3.6v-6.91h3.6v.75h-2.73v2.31Z"/><path class="cls-2" d="m129.21,43.84v.66c.36-.55.77-.78,1.36-.78.65,0,1.07.28,1.29.87.35-.61.8-.87,1.51-.87.55,0,.96.18,1.21.51.23.3.29.57.29,1.33v3.06h-.79v-2.87c0-.58-.02-.71-.13-.91-.15-.25-.46-.4-.83-.4-.69,0-1.08.47-1.08,1.31v2.87h-.79v-2.86c0-.47-.04-.7-.16-.91-.14-.27-.42-.41-.78-.41-.69,0-1.11.5-1.11,1.33v2.86h-.79v-4.78h.79Z"/><path class="cls-2" d="m137.12,43.84v.87c.46-.7.94-.98,1.74-.98,1.33,0,2.25,1.02,2.25,2.47s-.92,2.54-2.25,2.54c-.37,0-.71-.08-1.05-.25-.29-.15-.43-.27-.69-.61v2.98h-.79v-7.01h.79Zm0,2.47c0,1.05.63,1.74,1.57,1.74s1.57-.74,1.57-1.82c0-.56-.14-.98-.41-1.3-.28-.31-.7-.5-1.13-.5-.95,0-1.61.76-1.61,1.87Z"/><path class="cls-2" d="m142.3,48.62v-6.91h.79v6.91h-.79Z"/><path class="cls-2" d="m149.14,46.24c0,1.4-1.08,2.49-2.45,2.49s-2.41-1.04-2.41-2.51.99-2.5,2.45-2.5,2.41,1.05,2.41,2.52Zm-4.05-.01c0,1.06.65,1.77,1.63,1.77s1.62-.74,1.62-1.77-.64-1.78-1.61-1.78-1.64.71-1.64,1.78Z"/><path class="cls-2" d="m153.05,43.84h.86l-2.85,7.08h-.86l1-2.45-1.7-4.63h.84l1.28,3.54,1.43-3.54Z"/><path class="cls-2" d="m155.54,43.84v.66c.36-.55.77-.78,1.36-.78.65,0,1.07.28,1.29.87.35-.61.8-.87,1.51-.87.55,0,.96.18,1.21.51.23.3.29.57.29,1.33v3.06h-.79v-2.87c0-.58-.02-.71-.13-.91-.15-.25-.46-.4-.83-.4-.69,0-1.08.47-1.08,1.31v2.87h-.79v-2.86c0-.47-.04-.7-.16-.91-.14-.27-.42-.41-.78-.41-.69,0-1.11.5-1.11,1.33v2.86h-.79v-4.78h.79Z"/><path class="cls-2" d="m163.21,46.48c.04.4.11.61.31.87.31.42.77.65,1.29.65.59,0,1.15-.32,1.43-.82l.69.26c-.39.8-1.21,1.28-2.12,1.28-1.42,0-2.43-1.04-2.43-2.49s1.01-2.52,2.4-2.52,2.42,1.05,2.42,2.45c0,.06,0,.2-.01.31h-3.98Zm3.15-.58c-.03-.37-.1-.58-.27-.82-.3-.4-.79-.65-1.32-.65s-1.01.25-1.28.66c-.15.23-.21.42-.27.81h3.14Z"/><path class="cls-2" d="m169.12,43.84v.67c.41-.56.83-.79,1.42-.79.43,0,.83.15,1.11.39.3.29.4.62.4,1.27v3.22h-.79v-3.05c0-.42-.05-.65-.18-.82-.14-.2-.42-.32-.75-.32-.35,0-.67.13-.91.4-.23.25-.31.48-.31.87v2.91h-.79v-4.78h.79Z"/><path class="cls-2" d="m174.45,47.64c.01.24.07.29.36.29h.36v.68h-.74c-.56-.01-.78-.22-.78-.75v-3.34h-.66v-.69h.66v-1.5h.79v1.5h.73v.69h-.73v3.11Z"/><path class="cls-2" d="m184.89,47.57c-.69.82-1.46,1.17-2.53,1.17-.96,0-1.78-.35-2.37-1.02-.58-.65-.92-1.6-.92-2.56,0-2.07,1.4-3.58,3.31-3.58.62,0,1.23.17,1.73.47.28.18.47.34.81.71l-.6.56c-.67-.69-1.18-.94-1.92-.94-1.41,0-2.43,1.17-2.43,2.79s1.05,2.78,2.48,2.78c.76,0,1.34-.3,1.88-.95l.58.58Z"/><path class="cls-2" d="m190.38,46.24c0,1.4-1.08,2.49-2.45,2.49s-2.41-1.04-2.41-2.51.99-2.5,2.45-2.5,2.41,1.05,2.41,2.52Zm-4.05-.01c0,1.06.65,1.77,1.63,1.77s1.62-.74,1.62-1.77-.64-1.78-1.61-1.78-1.64.71-1.64,1.78Z"/><path class="cls-2" d="m192.36,43.84v.67c.41-.56.83-.79,1.42-.79.43,0,.83.15,1.11.39.3.29.4.62.4,1.27v3.22h-.79v-3.05c0-.42-.05-.65-.18-.82-.14-.2-.42-.32-.75-.32-.35,0-.67.13-.91.4-.23.25-.31.48-.31.87v2.91h-.79v-4.78h.79Z"/><path class="cls-2" d="m197.64,43.84v.67c.41-.56.83-.79,1.42-.79.43,0,.83.15,1.11.39.3.29.4.62.4,1.27v3.22h-.79v-3.05c0-.42-.05-.65-.18-.82-.14-.2-.42-.32-.75-.32-.35,0-.67.13-.91.4-.23.25-.31.48-.31.87v2.91h-.79v-4.78h.79Z"/><path class="cls-2" d="m202.58,46.48c.04.4.11.61.31.87.31.42.77.65,1.29.65.59,0,1.15-.32,1.43-.82l.69.26c-.39.8-1.21,1.28-2.12,1.28-1.42,0-2.43-1.04-2.43-2.49s1.01-2.52,2.4-2.52,2.42,1.05,2.42,2.45c0,.06,0,.2-.01.31h-3.98Zm3.15-.58c-.03-.37-.1-.58-.27-.82-.3-.4-.79-.65-1.32-.65s-1.01.25-1.28.66c-.15.23-.21.42-.27.81h3.14Z"/><path class="cls-2" d="m208.46,47.64c.01.24.07.29.36.29h.36v.68h-.74c-.56-.01-.78-.22-.78-.75v-3.34h-.66v-.69h.66v-1.5h.79v1.5h.73v.69h-.73v3.11Z"/><path class="cls-2" d="m211.13,42.5c0,.28-.23.5-.51.5s-.5-.22-.5-.51.22-.51.51-.51.5.23.5.52Zm-.11,6.11h-.79v-4.78h.79v4.78Z"/><path class="cls-2" d="m217.08,46.24c0,1.4-1.08,2.49-2.45,2.49s-2.41-1.04-2.41-2.51.99-2.5,2.45-2.5,2.41,1.05,2.41,2.52Zm-4.05-.01c0,1.06.65,1.77,1.63,1.77s1.62-.74,1.62-1.77-.64-1.78-1.61-1.78-1.64.71-1.64,1.78Z"/><path class="cls-2" d="m219.07,43.84v.67c.41-.56.83-.79,1.42-.79.43,0,.83.15,1.11.39.3.29.4.62.4,1.27v3.22h-.79v-3.05c0-.42-.05-.65-.18-.82-.14-.2-.42-.32-.75-.32-.35,0-.67.13-.91.4-.23.25-.31.48-.31.87v2.91h-.79v-4.78h.79Z"/><path class="cls-2" d="m225.76,45.15v-.05c0-.45-.36-.73-.91-.73s-.86.27-.86.68.21.57,1.07.81c.61.17.93.32,1.16.55.24.24.38.58.38.93,0,.83-.68,1.39-1.7,1.39-1.09,0-1.7-.51-1.78-1.47h.78c.05.54.4.83,1.01.83.54,0,.89-.28.89-.7s-.27-.62-1.09-.83c-1.04-.28-1.5-.71-1.5-1.44,0-.83.67-1.39,1.68-1.39s1.63.52,1.67,1.42h-.79Z"/></g></svg>