<?xml version="1.0" encoding="UTF-8"?><svg id="Layer_2" xmlns="http://www.w3.org/2000/svg" viewBox="0 0 226.97 60.07"><defs><style>.cls-1{fill:#4ad6fb;}.cls-1,.cls-2{stroke-width:0px;}.cls-2{fill:#2c2d34;}</style></defs><g id="Layer_1-2"><path class="cls-1" d="m33.48,24.79h1.68c.77,3,1.78,6.47,2.71,9.25h.07c.93-2.78,1.96-6.28,2.71-9.25h1.65c-.93,3.66-2.35,8.21-3.35,10.72h-2.15c-1-2.51-2.41-7.06-3.33-10.72Z"/><rect class="cls-1" x="31.01" y="24.56" width="6.76" height="1.39"/><path class="cls-2" d="m38.6,17.12C17.28,17.12,0,22.91,0,30.04s17.28,12.91,38.6,12.91,38.6-5.78,38.6-12.91-17.28-12.91-38.6-12.91Zm0,24.77c-19.57,0-35.44-5.31-35.44-11.85s15.87-11.85,35.44-11.85,35.44,5.31,35.44,11.85-15.87,11.85-35.44,11.85Z"/><path class="cls-2" d="m48.22,21.43C34.01,5.54,18.18-3.49,12.86,1.27c-5.31,4.76,1.9,21.49,16.12,37.38,14.22,15.89,30.05,24.91,35.36,20.16,5.31-4.76-1.9-21.49-16.12-37.38Zm-18.46,16.51C16.72,23.35,10.09,7.99,14.97,3.63c4.88-4.37,19.41,3.92,32.46,18.51,13.05,14.59,19.67,29.95,14.8,34.31-4.88,4.37-19.41-3.92-32.46-18.51Z"/><circle class="cls-1" cx="65" cy="20.98" r="3.86"/><circle class="cls-1" cx="11.81" cy="38.2" r="3.27"/><circle class="cls-1" cx="44.08" cy="51.58" r="2.28"/><path class="cls-1" d="m90.63,19.5h-5.77v-3.26h15.2v3.26h-5.74v15.98h-3.69v-15.98Z"/><path class="cls-1" d="m110.66,35.48h-2.83l-.37-1.9c-1.01,1.5-2.46,2.24-4.43,2.24-2.54,0-4.36-1.39-4.36-4.14,0-2.24,1.6-4.46,6.44-4.46.8,0,1.34.03,2,.11v-1.04c0-1.68-.88-2.4-2.41-2.4-1.71,0-2.8.53-4.17,1.34l-1.2-2.14c1.52-1.2,3.63-2.03,5.74-2.03,3.53,0,5.58,1.52,5.58,5.18v9.25Zm-3.55-5.8c-.4-.08-.96-.13-1.68-.13-1.92,0-3.23.51-3.23,2.08,0,1.04.67,1.58,1.92,1.58,1.84,0,2.99-1.68,2.99-3.15v-.37Z"/><path class="cls-1" d="m114.22,35.48v-19.24h3.55v19.24h-3.55Z"/><path class="cls-1" d="m133.4,34.01c-1.66,1.23-3.58,1.82-5.72,1.82-4.25,0-6.81-2.56-6.81-7.29s2.64-7.48,6.84-7.48c3.9,0,6.06,2.27,6.06,6.84,0,.32-.03,1.5-.05,1.74h-9.11c.16,1.92,1.1,3.26,3.5,3.26,1.42,0,2.56-.37,4.14-1.2l1.15,2.32Zm-3.02-6.95c0-1.79-.64-3.34-2.64-3.34-2.35,0-3.05,2.19-3.1,3.34h5.74Z"/><path class="cls-1" d="m139.65,21.37l.29,1.87c1.02-1.18,2.59-2.19,4.57-2.19,2.97,0,4.46,1.9,4.46,4.97v9.46h-3.55v-8.39c0-2.11-.72-3.02-2.22-3.02-1.42,0-2.54,1.07-2.97,1.58v9.83h-3.55v-14.11h2.97Z"/><path class="cls-1" d="m156.73,24.04v7.91c0,.83.27,1.15.91,1.15.43,0,1.26-.11,1.66-.24l.35,2.43c-.94.32-2.24.53-3.31.53-2.11,0-3.13-1.15-3.13-3.15v-8.63h-1.84v-2.06l1.9-.59.37-4.06h3.1v4.03h2.54v2.67h-2.54Z"/><path class="cls-1" d="m164.29,21.37l3.1,10.66,3.1-10.66h3.58l-4.65,14.11h-4.14l-4.7-14.11h3.71Z"/><path class="cls-1" d="m187.69,34.01c-1.66,1.23-3.58,1.82-5.72,1.82-4.25,0-6.81-2.56-6.81-7.29s2.64-7.48,6.84-7.48c3.9,0,6.06,2.27,6.06,6.84,0,.32-.03,1.5-.05,1.74h-9.11c.16,1.92,1.1,3.26,3.5,3.26,1.42,0,2.56-.37,4.14-1.2l1.15,2.32Zm-3.02-6.95c0-1.79-.64-3.34-2.64-3.34-2.35,0-3.05,2.19-3.1,3.34h5.74Z"/><path class="cls-1" d="m194.13,23.4c.67-1.31,1.82-2.35,3.13-2.35.51,0,.99.13,1.39.29l-.27,3.23c-.45-.13-.83-.19-1.34-.19-1.07,0-2.06.96-2.51,1.74v9.35h-3.55v-14.11h2.83l.32,2.03Z"/><path class="cls-1" d="m201.35,31.23c1.34,1.01,3.1,1.82,4.46,1.82,1.28,0,1.98-.56,1.98-1.44,0-.94-.48-1.36-2.81-1.95-3.05-.77-4.33-1.92-4.33-4.25,0-2.72,2.14-4.35,5.34-4.35,2.24,0,4.14.8,5.61,2.14l-1.58,2.06c-1.34-.96-2.64-1.5-3.87-1.5-1.31,0-1.95.45-1.95,1.26,0,1.04.93,1.34,3.07,1.95,2.99.86,4.36,1.84,4.36,4.2,0,2.99-2.22,4.67-5.64,4.67-2.59,0-4.78-1.07-6.23-2.46l1.58-2.14Z"/><path class="cls-1" d="m226.6,34.01c-1.66,1.23-3.58,1.82-5.72,1.82-4.25,0-6.81-2.56-6.81-7.29s2.64-7.48,6.84-7.48c3.9,0,6.06,2.27,6.06,6.84,0,.32-.03,1.5-.05,1.74h-9.11c.16,1.92,1.1,3.26,3.5,3.26,1.42,0,2.56-.37,4.14-1.2l1.15,2.32Zm-3.02-6.95c0-1.79-.64-3.34-2.64-3.34-2.35,0-3.05,2.19-3.1,3.34h5.74Z"/></g></svg>